<?xml version="1.0" encoding="UTF-8" standalone="no"?>
<!-- Created with Inkscape (http://www.inkscape.org/) -->

<svg
   width="1450.973"
   height="557.28375"
   viewBox="0 0 1450.973 557.28376"
   version="1.1"
   id="svg1"
   xml:space="preserve"
   inkscape:version="1.3 (0e150ed6c4, 2023-07-21)"
   sodipodi:docname="logo.svg"
   xmlns:inkscape="http://www.inkscape.org/namespaces/inkscape"
   xmlns:sodipodi="http://sodipodi.sourceforge.net/DTD/sodipodi-0.dtd"
   xmlns:xlink="http://www.w3.org/1999/xlink"
   xmlns="http://www.w3.org/2000/svg"
   xmlns:svg="http://www.w3.org/2000/svg"><sodipodi:namedview
     id="namedview1"
     pagecolor="#505050"
     bordercolor="#ffffff"
     borderopacity="1"
     inkscape:showpageshadow="0"
     inkscape:pageopacity="0"
     inkscape:pagecheckerboard="1"
     inkscape:deskcolor="#505050"
     inkscape:document-units="px"
     inkscape:zoom="0.75633418"
     inkscape:cx="577.12584"
     inkscape:cy="298.14863"
     inkscape:window-width="1920"
     inkscape:window-height="1027"
     inkscape:window-x="-8"
     inkscape:window-y="-8"
     inkscape:window-maximized="1"
     inkscape:current-layer="g57"
     showgrid="true"><inkscape:grid
       id="grid1"
       units="px"
       originx="81.773736"
       originy="-206.22126"
       spacingx="1"
       spacingy="1"
       empcolor="#e50000"
       empopacity="0.30196078"
       color="#e50000"
       opacity="0.14901961"
       empspacing="1"
       dotted="false"
       gridanglex="30"
       gridanglez="30"
       visible="true" /></sodipodi:namedview><defs
     id="defs1"><linearGradient
       id="linearGradient60"><stop
         style="stop-color:#68006a;stop-opacity:1;"
         offset="0"
         id="stop57" /><stop
         style="stop-color:#68006a;stop-opacity:1;"
         offset="0.26624739"
         id="stop58" /><stop
         style="stop-color:#200021;stop-opacity:1;"
         offset="0.47379455"
         id="stop59" /><stop
         style="stop-color:#200021;stop-opacity:1;"
         offset="1"
         id="stop60" /></linearGradient><inkscape:path-effect
       effect="bend_path"
       id="path-effect57"
       is_visible="true"
       lpeversion="1"
       bendpath="m 16,576 c 0,0 192.00817,-146.75322 656,-144 445.6422,2.64433 640,144 640,144"
       prop_scale="1"
       scale_y_rel="false"
       vertical="false"
       hide_knot="false"
       bendpath-nodetypes="csc" /><linearGradient
       id="linearGradient14"><stop
         style="stop-color:#e398ea;stop-opacity:1;"
         offset="0"
         id="stop46" /><stop
         style="stop-color:#e398ea;stop-opacity:1;"
         offset="0.28092241"
         id="stop47" /><stop
         style="stop-color:#ff00dc;stop-opacity:1;"
         offset="0.65199161"
         id="stop48" /><stop
         style="stop-color:#ff00dc;stop-opacity:1;"
         offset="1"
         id="stop49" /></linearGradient><linearGradient
       id="linearGradient26"><stop
         style="stop-color:#3c003d;stop-opacity:1;"
         offset="0"
         id="stop42" /><stop
         style="stop-color:#3c003d;stop-opacity:1;"
         offset="0.26624739"
         id="stop43" /><stop
         style="stop-color:#000000;stop-opacity:1;"
         offset="0.47379455"
         id="stop44" /><stop
         style="stop-color:#000000;stop-opacity:1;"
         offset="1"
         id="stop45" /></linearGradient><linearGradient
       id="linearGradient26-1"><stop
         style="stop-color:#ffffff;stop-opacity:1;"
         offset="0"
         id="stop27" /><stop
         style="stop-color:#ffffff;stop-opacity:1;"
         offset="0.26624739"
         id="stop29" /><stop
         style="stop-color:#00ffff;stop-opacity:1;"
         offset="0.47379455"
         id="stop30" /><stop
         style="stop-color:#00ffff;stop-opacity:1;"
         offset="1"
         id="stop28" /></linearGradient><linearGradient
       id="linearGradient14-1"><stop
         style="stop-color:#009cff;stop-opacity:1;"
         offset="0"
         id="stop15" /><stop
         style="stop-color:#0094ff;stop-opacity:1;"
         offset="0.78825992"
         id="stop25" /><stop
         style="stop-color:#00e4ff;stop-opacity:1;"
         offset="0.78825992"
         id="stop26" /><stop
         style="stop-color:#00f8ff;stop-opacity:1;"
         offset="1"
         id="stop16" /></linearGradient><inkscape:path-effect
       effect="powerstroke"
       id="path-effect11"
       is_visible="true"
       lpeversion="1.3"
       scale_width="1"
       interpolator_type="CubicBezierJohan"
       interpolator_beta="0.2"
       start_linecap_type="zerowidth"
       end_linecap_type="zerowidth"
       offset_points="0.39988715,0.82022702"
       linejoin_type="extrp_arc"
       miter_limit="4"
       not_jump="false"
       sort_points="true"
       message="&lt;b&gt;Ctrl + click&lt;/b&gt; on existing node and move it" /><inkscape:path-effect
       effect="powerstroke"
       id="path-effect9"
       is_visible="true"
       lpeversion="1.3"
       scale_width="1"
       interpolator_type="CubicBezierJohan"
       interpolator_beta="0.2"
       start_linecap_type="zerowidth"
       end_linecap_type="zerowidth"
       offset_points="1,4.9921384"
       linejoin_type="extrp_arc"
       miter_limit="4"
       not_jump="false"
       sort_points="true"
       message="&lt;b&gt;Ctrl + click&lt;/b&gt; on existing node and move it" /><inkscape:path-effect
       split_items="false"
       oposite_fuse="false"
       fuse_paths="true"
       discard_orig_path="false"
       mode="free"
       lpeversion="1"
       is_visible="true"
       id="path-effect2468"
       center_point="9.081941,5.8759431"
       end_point="9.081941,6.9440547"
       start_point="9.081941,4.8078315"
       effect="mirror_symmetry"
       lpesatellites=""
       split_open="false"
       link_styles="false" /><inkscape:path-effect
       split_items="false"
       oposite_fuse="false"
       fuse_paths="true"
       discard_orig_path="false"
       mode="free"
       lpeversion="1"
       is_visible="true"
       id="path-effect2456"
       center_point="290.95583,23.967665"
       end_point="290.95583,26.561097"
       start_point="290.95583,21.374233"
       effect="mirror_symmetry"
       lpesatellites=""
       split_open="false"
       link_styles="false" /><inkscape:path-effect
       effect="fill_between_many"
       method="bsplinespiro"
       autoreverse="false"
       close="false"
       join="false"
       linkedpaths="#path9,0,1"
       id="path-effect10"
       is_visible="true"
       lpeversion="0"
       fuse="false"
       applied="false" /><inkscape:path-effect
       effect="fill_between_many"
       method="bsplinespiro"
       autoreverse="false"
       close="false"
       join="false"
       linkedpaths="#path10,0,1"
       id="path-effect12"
       is_visible="true"
       lpeversion="0"
       fuse="false"
       applied="false" /><inkscape:path-effect
       effect="fill_between_many"
       method="bsplinespiro"
       autoreverse="false"
       close="false"
       join="false"
       linkedpaths="#path10,0,1"
       id="path-effect12-4"
       is_visible="true"
       lpeversion="0"
       fuse="false"
       applied="false" /><inkscape:path-effect
       effect="fill_between_many"
       method="bsplinespiro"
       autoreverse="false"
       close="false"
       join="false"
       linkedpaths="#path10,0,1"
       id="path-effect12-9"
       is_visible="true"
       lpeversion="0"
       fuse="false"
       applied="false" /><inkscape:path-effect
       effect="fill_between_many"
       method="bsplinespiro"
       autoreverse="false"
       close="false"
       join="false"
       linkedpaths="#path10,0,1"
       id="path-effect12-44"
       is_visible="true"
       lpeversion="0"
       fuse="false"
       applied="false" /><inkscape:path-effect
       effect="fill_between_many"
       method="bsplinespiro"
       autoreverse="false"
       close="false"
       join="false"
       linkedpaths="#path10,0,1"
       id="path-effect12-3"
       is_visible="true"
       lpeversion="0"
       fuse="false"
       applied="false" /><inkscape:path-effect
       effect="fill_between_many"
       method="bsplinespiro"
       autoreverse="false"
       close="false"
       join="false"
       linkedpaths="#path10,0,1"
       id="path-effect12-3-2"
       is_visible="true"
       lpeversion="0"
       fuse="false"
       applied="false" /><inkscape:path-effect
       effect="fill_between_many"
       method="bsplinespiro"
       autoreverse="false"
       close="false"
       join="false"
       linkedpaths="#path10,0,1"
       id="path-effect12-3-2-2"
       is_visible="true"
       lpeversion="0"
       fuse="false"
       applied="false" /><inkscape:path-effect
       effect="fill_between_many"
       method="bsplinespiro"
       autoreverse="false"
       close="false"
       join="false"
       linkedpaths="#path10,0,1"
       id="path-effect12-3-2-1"
       is_visible="true"
       lpeversion="0"
       fuse="false"
       applied="false" /><inkscape:path-effect
       effect="fill_between_many"
       method="bsplinespiro"
       autoreverse="false"
       close="false"
       join="false"
       linkedpaths="#path10,0,1"
       id="path-effect12-3-2-2-5"
       is_visible="true"
       lpeversion="0"
       fuse="false"
       applied="false" /><inkscape:path-effect
       effect="fill_between_many"
       method="bsplinespiro"
       autoreverse="false"
       close="false"
       join="false"
       linkedpaths="#path10,0,1"
       id="path-effect12-3-2-16"
       is_visible="true"
       lpeversion="0"
       fuse="false"
       applied="false" /><inkscape:path-effect
       effect="fill_between_many"
       method="bsplinespiro"
       autoreverse="false"
       close="false"
       join="false"
       linkedpaths="#path10,0,1"
       id="path-effect12-3-2-2-6"
       is_visible="true"
       lpeversion="0"
       fuse="false"
       applied="false" /><inkscape:path-effect
       effect="fill_between_many"
       method="bsplinespiro"
       autoreverse="false"
       close="false"
       join="false"
       linkedpaths="#path10,0,1"
       id="path-effect12-3-2-16-0"
       is_visible="true"
       lpeversion="0"
       fuse="false"
       applied="false" /><inkscape:path-effect
       effect="fill_between_many"
       method="bsplinespiro"
       autoreverse="false"
       close="false"
       join="false"
       linkedpaths="#path10,0,1"
       id="path-effect12-3-2-2-6-9"
       is_visible="true"
       lpeversion="0"
       fuse="false"
       applied="false" /><inkscape:path-effect
       effect="fill_between_many"
       method="bsplinespiro"
       autoreverse="false"
       close="false"
       join="false"
       linkedpaths="#path10,0,1"
       id="path-effect12-3-2-16-8"
       is_visible="true"
       lpeversion="0"
       fuse="false"
       applied="false" /><inkscape:path-effect
       effect="fill_between_many"
       method="bsplinespiro"
       autoreverse="false"
       close="false"
       join="false"
       linkedpaths="#path10,0,1"
       id="path-effect12-3-2-2-4"
       is_visible="true"
       lpeversion="0"
       fuse="false"
       applied="false" /><inkscape:path-effect
       effect="fill_between_many"
       method="bsplinespiro"
       autoreverse="false"
       close="false"
       join="false"
       linkedpaths="#path10,0,1"
       id="path-effect12-3-2-6"
       is_visible="true"
       lpeversion="0"
       fuse="false"
       applied="false" /><inkscape:path-effect
       effect="fill_between_many"
       method="bsplinespiro"
       autoreverse="false"
       close="false"
       join="false"
       linkedpaths="#path10,0,1"
       id="path-effect12-3-2-9"
       is_visible="true"
       lpeversion="0"
       fuse="false"
       applied="false" /><inkscape:path-effect
       effect="fill_between_many"
       method="bsplinespiro"
       autoreverse="false"
       close="false"
       join="false"
       linkedpaths="#path10,0,1"
       id="path-effect12-3-2-16-0-4"
       is_visible="true"
       lpeversion="0"
       fuse="false"
       applied="false" /><inkscape:path-effect
       effect="fill_between_many"
       method="bsplinespiro"
       autoreverse="false"
       close="false"
       join="false"
       linkedpaths="#path10,0,1"
       id="path-effect12-3-2-2-6-6"
       is_visible="true"
       lpeversion="0"
       fuse="false"
       applied="false" /><inkscape:path-effect
       effect="fill_between_many"
       method="bsplinespiro"
       autoreverse="false"
       close="false"
       join="false"
       linkedpaths="#path10,0,1"
       id="path-effect12-3-2-2-9"
       is_visible="true"
       lpeversion="0"
       fuse="false"
       applied="false" /><inkscape:path-effect
       effect="fill_between_many"
       method="bsplinespiro"
       autoreverse="false"
       close="false"
       join="false"
       linkedpaths="#path10,0,1"
       id="path-effect12-3-2-2-6-9-9"
       is_visible="true"
       lpeversion="0"
       fuse="false"
       applied="false" /><inkscape:path-effect
       effect="fill_between_many"
       method="bsplinespiro"
       autoreverse="false"
       close="false"
       join="false"
       linkedpaths="#path10,0,1"
       id="path-effect12-3-2-2-5-9"
       is_visible="true"
       lpeversion="0"
       fuse="false"
       applied="false" /><inkscape:path-effect
       effect="fill_between_many"
       method="bsplinespiro"
       autoreverse="false"
       close="false"
       join="false"
       linkedpaths="#path10,0,1"
       id="path-effect12-3-2-1-9"
       is_visible="true"
       lpeversion="0"
       fuse="false"
       applied="false" /><inkscape:path-effect
       effect="fill_between_many"
       method="bsplinespiro"
       autoreverse="false"
       close="false"
       join="false"
       linkedpaths="#path10,0,1"
       id="path-effect12-3-2-16-7"
       is_visible="true"
       lpeversion="0"
       fuse="false"
       applied="false" /><linearGradient
       inkscape:collect="always"
       xlink:href="#linearGradient14"
       id="linearGradient16"
       x1="757.96979"
       y1="572.81439"
       x2="757.96979"
       y2="716.01801"
       gradientUnits="userSpaceOnUse" /><linearGradient
       inkscape:collect="always"
       xlink:href="#linearGradient60"
       id="linearGradient28"
       x1="600.65533"
       y1="537.01349"
       x2="600.65533"
       y2="751.81891"
       gradientUnits="userSpaceOnUse" /><linearGradient
       inkscape:collect="always"
       xlink:href="#linearGradient14"
       id="linearGradient40"
       x1="400.43686"
       y1="322.2081"
       x2="400.43686"
       y2="465.41171"
       gradientUnits="userSpaceOnUse" /><linearGradient
       inkscape:collect="always"
       xlink:href="#linearGradient60"
       id="linearGradient42"
       x1="400.43686"
       y1="286.4072"
       x2="400.43686"
       y2="501.21259"
       gradientUnits="userSpaceOnUse" /><linearGradient
       inkscape:collect="always"
       xlink:href="#linearGradient26-1"
       id="linearGradient45"
       gradientUnits="userSpaceOnUse"
       x1="600.65533"
       y1="537.01349"
       x2="600.65533"
       y2="751.81891" /><linearGradient
       inkscape:collect="always"
       xlink:href="#linearGradient14-1"
       id="linearGradient49"
       gradientUnits="userSpaceOnUse"
       x1="886.68164"
       y1="729.44336"
       x2="886.68164"
       y2="577.28955" /></defs><g
     inkscape:label="Layer 1"
     inkscape:groupmode="layer"
     id="layer1"
     transform="translate(81.773737,-206.22127)"><g
       id="g57"><path
         id="path12"
         style="color:#000000;-inkscape-font-specification:Knicknack;opacity:0.36;fill:#8300ff;-inkscape-stroke:none;paint-order:stroke markers fill"
         d="m 547.70087,223.06502 v 0.002 c -20.29999,0.1772 -40.11181,5.30472 -57.88281,14.60547 -21.24515,10.75893 -39.10731,27.23674 -51.57422,47.60156 -8.48219,-14.79549 -19.91258,-28.265 -34.54883,-38.79101 -20.20916,-14.6362 -44.31608,-21.42676 -68.33593,-20.73633 l 0.002,-0.004 c -0.0157,3.9e-4 -0.0312,0.004 -0.0469,0.004 -0.0391,0.001 -0.0781,-0.003 -0.11718,-0.002 -21.93416,2.64034 -43.81277,5.35389 -57.78125,18.49414 -2.56879,1.73459 -5.07861,3.57515 -7.50977,5.54101 -17.49413,14.03917 -29.71333,32.26353 -37.61914,51.41602 l -0.10352,0.25 -0.0488,0.125 c -6.46755,15.9547 -11.00795,32.73752 -14.11133,50.11523 -7.72512,24.92162 -11.80987,51.38798 -12.95313,79.2461 v -0.0371 l -0.0195,0.48828 -0.0156,0.51367 v 0.0293 c -0.15875,5.83479 0.33398,11.42087 1.16797,16.86133 -10.06518,-1.27088 -20.2496,-1.90565 -30.52344,-1.86524 -4.03184,0.0157 -8.10037,0.19408 -12.17383,0.39844 v -0.01 l -1.94336,0.0606 v 0.0117 c -0.31746,0.0182 -0.62957,0.012 -0.94727,0.0312 l 0.006,0.12891 c -12.55533,0.45471 -27.16693,3.23182 -41.2207,11.26757 C 102.55413,450.23422 83.938496,446.25024 65.359076,446.79549 41.543288,447.40784 18.642491,455.7447 0.00360675,470.80525 -17.50868,484.84893 -29.734975,503.08447 -37.644831,522.24666 l -0.02344,0.0586 -0.126953,0.3086 -0.09766,0.24805 0.0957,-0.23829 c -6.42636,15.85316 -10.817965,32.42629 -13.892579,49.41797 -7.865842,25.11502 -12.015989,51.80264 -13.171875,79.9043 l -0.002,0.0215 c -1.89e-4,0.005 1.88e-4,0.0109 0,0.0156 l -0.01953,0.46094 -0.01367,0.51562 v 0.0176 c -0.809865,29.76234 11.553438,54.59936 34.402344,72.24609 l 1.416016,1.09375 1.46875,1.02344 h 0.0039 c 15.840577,11.02257 34.260097,17.19133 53.826172,17.78516 14.93163,0.52577 29.284739,-2.31119 42.482422,-8.07227 7.715539,3.50439 15.926683,6.01622 24.662109,7.23633 11.282135,1.66759 22.952545,1.70752 34.636715,-0.19922 4.67616,-0.7564 9.19922,-1.88619 13.58203,-3.33594 5.80308,1.49179 11.74195,2.52183 17.8379,2.89649 l 0.63476,0.041 13.09766,0.56055 0.002,-0.0488 c 5.15757,0.2703 9.55519,0.27923 15.33203,0.27539 13.07133,0.17009 26.13508,-0.92494 39.22461,-2.98437 h 0.008 l 0.34375,-0.0508 0.51953,-0.0879 0.01,-0.004 c 11.06069,-1.88022 21.99438,-5.29969 32.53125,-10.02344 19.87881,9.30781 41.44488,13.42763 62.52148,13.33399 21.74548,-0.0297 43.90586,-4.57435 64.10938,-14.51953 22.02159,12.40552 46.91893,17.28583 70.6543,16.42382 l -1.13477,0.0215 h 0.62695 l 0.59961,-0.0215 c 21.54647,-0.81019 43.88171,-6.229 64.14453,-18.11132 10.46288,6.62968 22.04963,11.06328 34.46485,13.12109 l 0.0137,0.004 c 0.009,0.002 0.0181,0.004 0.0273,0.006 l 1.12696,0.1875 1.11328,0.14649 c 10e-4,1.7e-4 0.005,-1.7e-4 0.006,0 11.25655,1.49863 22.81471,1.39183 34.31836,-0.50977 19.35141,-3.19889 36.56015,-12.0755 50.47461,-26.28515 3.32667,-3.38326 6.21638,-6.95835 8.88086,-10.625 5.2687,7.67853 11.78777,14.65515 19.64648,20.72461 l 0.0195,0.0156 1.39649,1.07422 1.44726,1.01172 0.0215,0.0156 c 15.84087,11.02303 34.26239,17.19134 53.82812,17.78516 14.93253,0.52551 29.28473,-2.31342 42.48047,-8.07422 7.71736,3.50522 15.93032,6.01802 24.66602,7.23828 11.2848,1.66802 22.95477,1.70671 34.64062,-0.20117 17.5699,-2.84218 33.84528,-10.39946 47.5,-23.03125 l 0.31641,0.26953 0.48047,0.39844 0.0117,0.008 c 16.90631,14.00731 36.62246,20.71542 56.15821,21.91602 l 0.63476,0.041 13.09766,0.56055 0.002,-0.0469 c 5.15765,0.2703 9.55703,0.27923 15.33399,0.27539 13.07241,0.1701 26.13546,-0.92439 39.22663,-2.98438 l 0.3457,-0.0527 0.5195,-0.0879 0.01,-0.002 c 7.9865,-1.35763 15.802,-3.68117 23.4824,-6.4707 7.0392,0.38077 13.8446,0.67526 20.3848,0.86914 16.5698,5.99068 33.9229,8.98893 51.1875,8.91211 16.2469,-0.0229 32.6226,-2.60521 48.3007,-7.99023 1.2568,0.50349 2.4429,1.08757 3.7364,1.54687 l 0.049,0.0176 0.8457,0.29492 0.8574,0.2832 0.055,0.0176 c 17.9172,5.83228 35.5141,5.65237 51.1484,2.14063 l 0.01,-0.002 0.5977,-0.13476 0.5566,-0.13477 c 4.7184,-1.14228 9.13,-2.73348 13.3867,-4.52148 3.4896,1.51745 7.0752,2.9089 10.8828,3.98828 16.0985,4.56376 33.7636,5.27496 51.7149,0.32226 12.3495,-3.31506 24.1283,-8.8132 34.7441,-16.55664 v -0.002 c 19.3907,-14.14489 32.1932,-34.15625 34.7442,-60.66797 1.6842,-17.08786 -2.0121,-32.16392 -7.7891,-44.82422 -0.1668,-4.97688 -0.7547,-9.75146 -1.7656,-14.28711 6.9563,-12.89893 11.2531,-28.26313 10.2148,-45.9707 -0.6463,-11.36514 -3.6885,-21.4547 -8.0156,-30.51562 -0.015,-1.0293 0.048,-2.00178 -0.016,-3.0625 -1.3439,-23.80389 -11.828,-41.94912 -28.6563,-55.56836 -9.0118,-7.37956 -19.2483,-13.08104 -30.3906,-16.83789 -8.2487,-2.85092 -16.7068,-4.37961 -25.2676,-4.61133 -8.5972,-0.23292 -16.6715,0.83894 -24.043,2.67969 -4.8412,1.20888 -9.3541,2.9368 -13.7109,4.89062 -3.5946,-1.56447 -7.3006,-2.97574 -11.25,-4.03125 -14.7087,-4.0211 -30.8292,-4.64421 -47.2617,0.0449 -4.2276,1.20633 -8.3092,2.76001 -12.2988,4.49805 -14.4278,-5.47995 -29.5968,-8.26722 -44.7598,-8.89453 l -0.4629,-0.18555 h -6.1641 c -7.9381,0 -15.9478,0.59698 -23.8984,1.82227 2.3785,-12.73803 2.2586,-25.9311 -1.1484,-39.2461 -1.3567,-5.31953 -3.262,-10.1826 -5.4434,-14.68945 -0.1448,-4.78867 -0.7187,-9.7142 -1.8262,-14.75391 2.478,-5.03348 4.6198,-10.52466 6.0371,-16.60937 3.4356,-14.47574 3.5451,-29.56962 -0.3125,-44.65039 -1.3354,-5.24057 -3.2421,-9.98636 -5.3789,-14.46485 -0.1929,-5.72688 -0.893,-11.58936 -2.4238,-17.56445 -5.7936,-22.72852 -19.8332,-37.85839 -35.5723,-47.53125 -15.8699,-9.75305 -32.70575,-12.88598 -47.67577,-12.76562 v -0.0684 h -58.65625 v 0.0605 c -8.71048,-0.0466 -17.30661,1.27113 -25.70118,3.75782 -6.33782,-2.03681 -12.90017,-3.47793 -19.71289,-4.04102 h -0.002 c -3.73832,-0.3089 -7.44143,-0.38068 -11.0957,-0.23437 -3.63853,0.14561 -7.17639,0.50254 -10.59571,1.03125 l -0.17773,0.0273 -0.14063,0.0234 c -14.93663,2.38666 -28.72783,8.44472 -40.48828,18.71875 -11.38099,-8.65198 -24.60706,-14.23396 -38.90234,-16.64063 -19.73096,-3.40971 -39.88895,-0.5651 -58.25977,9.14258 -16.91993,-8.67777 -35.63667,-12.71675 -54.32226,-12.16797 -17.93598,0.46166 -35.35313,5.30747 -50.82617,14.10742 -14.13951,-7.91022 -29.6598,-13.17488 -45.78321,-15.44726 -6.00597,-0.8557 -12.12043,-1.26938 -18.28906,-1.29297 v -0.0234 h -0.006 v 0.0234 c -0.53339,-0.002 -1.05946,-0.0534 -1.59375,-0.0488 -0.002,1e-5 -0.004,-2e-5 -0.006,0 z m 351.43946,7.13867 0.45703,0.15235 c -0.0669,-0.0229 -0.13813,-0.034 -0.20508,-0.0566 -0.0895,-0.0295 -0.16199,-0.0664 -0.25195,-0.0957 z m -166.58204,16.23828 0.1211,0.0879 c -0.0191,-0.0139 -0.0395,-0.0252 -0.0586,-0.0391 -0.0256,-0.0184 -0.0368,-0.0303 -0.0625,-0.0488 z m -133.65625,3.26758 c -0.034,0.0272 -0.0249,0.0257 -0.0586,0.0527 -0.0229,0.0185 -0.0474,0.0342 -0.0703,0.0527 z m -162.20117,38.00195 -0.084,0.14649 -0.0488,0.082 c -0.003,0.005 -0.005,0.0106 -0.008,0.0156 l -0.16016,0.27539 0.10352,-0.18946 z m 637.55863,168.86329 -0.055,0.19336 c 0.01,-0.0264 0.01,-0.0537 0.018,-0.0801 0.011,-0.0393 0.026,-0.0739 0.037,-0.11328 z m -940.54691,10.91601 0.12109,0.0879 c -0.0191,-0.0139 -0.0394,-0.0252 -0.0586,-0.0391 -0.0252,-0.0181 -0.0372,-0.0307 -0.0625,-0.0488 z m 60.96875,129.34375 c 0.734,0.01 -0.43265,1.14926 -3.11523,1.53516 1.60822,-1.0608 2.70544,-1.54046 3.11523,-1.53516 z m -4.66992,2.66797 3.28516,3.4707 -1.35938,1.59571 c -1.66489,-0.0133 -3.21423,0.0265 -5.07812,-0.0762 v -2.1289 c 1.01102,-0.8895 2.34425,-2.24873 3.15234,-2.86133 z m 1153.54688,28.81836 v 0 l -0.027,0.27148 c 0,-0.0175 2e-4,-0.0334 0,-0.0508 0.058,-0.5495 -0.061,0.71874 0.025,-0.2207 z m -888.36329,50.88867 c 0.0223,9e-4 0.0444,0.002 0.0664,0.002 v 0.004 l -0.0664,0.002 z"
         sodipodi:nodetypes="cccccccccccccccccccccccccccccccccccccccccccsccccccccccccccccccccccccccccccccsccccccccccccccccccccccccccccscccssccscscccccccccccssccscccsccccccccscccccssssccccccccccccscccccccsccscccccccccccccccccccccccccccccccccccccccccc" /><path
         id="path49"
         style="font-size:197.846px;line-height:1.25;font-family:Knicknack;-inkscape-font-specification:Knicknack;text-align:center;text-anchor:middle;fill:none;fill-opacity:1;stroke:#00c9ff;stroke-width:80.1;stroke-linecap:square;stroke-linejoin:round;stroke-dasharray:none;stroke-opacity:1;paint-order:stroke markers fill"
         d="m 1099.5625,543.96094 c -21.3967,0 -37.7012,5.83633 -48.916,17.50781 -11.0673,11.55357 -16.4533,26.93761 -16.1582,46.1543 0.1475,18.74509 5.8281,34.24883 17.0429,46.50976 11.0673,12.02517 27.0042,17.97922 47.8106,17.86133 20.8065,0 36.8183,-6.0718 48.0332,-18.21484 11.51,-12.14306 17.2637,-27.99995 17.2637,-47.57032 0.2951,-18.6272 -5.3123,-33.65805 -16.8223,-45.09375 -11.2148,-11.43568 -27.2998,-17.15429 -48.2539,-17.15429 z m -147.71875,0.33203 c -3.74443,0.0148 -7.55421,0.13921 -11.42773,0.375 -13.28072,0 -20.65914,5.89421 -22.13477,17.68359 -2.27429,31.46803 -2.28124,61.64845 0.44336,91.25 0.44269,4.71576 2.58131,8.72437 6.41797,12.0254 3.98419,3.30101 8.85439,5.12873 14.60938,5.48241 l 12.39648,0.53125 c 1.9183,0.1179 6.27066,0.17578 13.05859,0.17578 8.41111,0.1179 17.48543,-0.58847 27.22461,-2.12109 13.87096,-2.35788 24.64316,-7.95875 32.31636,-16.80078 5.3123,-6.83784 7.1584,-14.14675 5.5352,-21.92774 -1.6232,-7.89887 -6.3452,-15.20777 -14.166,-21.92773 7.2306,-8.48835 10.6975,-16.85877 10.4023,-25.11132 -0.1475,-8.37046 -4.1322,-15.91679 -11.9531,-22.63673 -7.5257,-6.71993 -17.78003,-11.43494 -30.76562,-14.14647 -10.0712,-1.94526 -20.72377,-2.89578 -31.95703,-2.85157 z m 305.92575,0.64063 c -2.1766,-0.0589 -4.4437,0.20544 -6.8046,0.79492 -4.7221,1.17894 -8.6336,3.65514 -11.7324,7.42773 l -17.9298,21.39844 -16.3789,-21.04492 c -2.8037,-3.65471 -6.4919,-6.07107 -11.0664,-7.25 -4.5745,-1.29684 -8.9287,-1.35668 -13.0605,-0.17774 -4.1318,1.17895 -7.8951,3.00665 -11.289,5.48243 -3.3941,2.35785 -5.3113,5.42272 -5.754,9.1953 -0.4427,3.77261 0.7374,7.66349 3.541,11.67188 l 27.004,34.30859 -30.3243,36.25196 c -2.8036,3.65469 -4.132,7.36803 -3.9844,11.14062 0.1476,3.65472 1.7722,6.83729 4.8712,9.54883 3.2463,2.59367 6.8614,4.59894 10.8456,6.01367 3.9842,1.29684 8.3366,1.41457 13.0586,0.35351 4.8696,-1.17892 8.9274,-3.65513 12.1739,-7.42772 l 19.2577,-23.16602 6.8614,9.01953 7.9687,9.90235 3.5411,4.42187 c 2.8036,3.65472 6.4938,6.12896 11.0684,7.42578 4.5744,1.29683 8.9267,1.35667 13.0586,0.17773 4.1315,-1.06105 7.895,-2.82891 11.289,-5.30468 3.3939,-2.47578 5.238,-5.60044 5.5331,-9.37305 0.4427,-3.77259 -0.7372,-7.66348 -3.5409,-11.67188 l -28.7754,-36.7832 28.7754,-34.48437 c 2.9512,-3.65472 4.2794,-7.36804 3.9843,-11.14063 -0.1476,-3.7726 -1.8453,-6.95516 -5.0918,-9.54883 -3.2463,-2.71156 -6.8614,-4.71684 -10.8456,-6.01367 -1.9921,-0.70736 -4.0774,-1.08949 -6.254,-1.14843 z m -158.4277,30.68164 c 6.6404,0.23576 11.8801,3.36047 15.7168,9.37304 3.9842,6.24839 6.0497,13.32183 6.1973,21.2207 0.2951,8.48835 -1.4759,15.915 -5.3125,22.28126 -3.8367,6.36625 -9.4441,9.55077 -16.8223,9.55077 -6.7879,0.1179 -12.0277,-2.88906 -15.7168,-9.01952 -3.6891,-6.13048 -5.4581,-13.55712 -5.3106,-22.28126 0.2952,-8.60624 2.2124,-15.85725 5.754,-21.75195 3.689,-6.01257 8.8538,-9.13728 15.4941,-9.37304 z m -136.79102,4.24414 c 6.93547,0 12.24841,1.00165 15.9375,3.00586 3.98422,2.35786 4.27874,4.71633 0.88477,7.07422 -3.09884,2.12209 -8.70629,3.18358 -16.82227,3.18358 z m 0.22071,44.0332 c 8.85379,0 15.64321,1.00166 20.36523,3.00586 5.16472,2.00419 6.491,4.24493 3.98242,6.7207 -3.39397,3.5368 -11.50964,4.9515 -24.34765,4.24414 z"
         sodipodi:nodetypes="scccccccssccccccccccccccsssccccscsccccccccccccscscccccccscccscsccccccccccccc" /><path
         id="path50"
         style="font-size:197.846px;line-height:1.25;font-family:Knicknack;-inkscape-font-specification:Knicknack;text-align:center;text-anchor:middle;fill:none;fill-opacity:1;stroke:#000000;stroke-width:80.1;stroke-dasharray:none;stroke-opacity:1;paint-order:stroke markers fill"
         d="m 323.30469,543.96094 c -21.39669,0 -37.70315,5.83633 -48.91797,17.50781 -11.06726,11.55357 -16.45334,26.93761 -16.1582,46.1543 0.14755,18.74509 5.82815,34.24883 17.04296,46.50976 11.06726,12.02517 27.00412,17.97922 47.81055,17.86133 20.80646,0 36.81839,-6.0718 48.0332,-18.21484 11.50995,-12.14306 17.26368,-27.99995 17.26368,-47.57032 0.29512,-18.6272 -5.31232,-33.65805 -16.82226,-45.09375 -11.21483,-11.43568 -27.29797,-17.15429 -48.25196,-17.15429 z m -256.541018,0.17578 c -10.181875,0.23578 -19.183046,3.53804 -27.003906,9.90429 -7.820861,6.24837 -14.019285,14.91409 -18.593751,25.9961 -8.411112,20.7493 -13.206211,45.50736 -14.3867181,74.27344 -0.1475635,5.4231 1.9930199,9.84279 6.4199221,13.26172 4.574465,3.18313 9.590935,4.83328 15.050781,4.95117 5.459848,0.23579 10.551408,-1.1789 15.273437,-4.24414 4.722029,-3.06525 7.230266,-7.36721 7.525391,-12.9082 l 36.080078,0.17578 c 0,4.47995 1.547654,8.25311 4.646484,11.31836 3.098833,3.06524 6.862161,4.89295 11.28906,5.48241 4.42691,0.70737 8.7812,0.70737 13.06055,0 4.42689,-0.70736 8.11513,-2.59295 11.06641,-5.6582 2.95125,-3.18314 4.35264,-7.01612 4.20507,-11.49609 -1.18051,-30.06291 -6.27012,-55.52734 -15.27148,-76.39453 -4.8696,-11.19991 -11.5839,-19.86563 -20.142578,-25.99609 -8.411116,-6.13048 -18.151495,-9.0197 -29.21875,-8.66602 z m 703.216798,0 c -10.18187,0.23578 -19.18499,3.53804 -27.00586,9.90429 -7.82086,6.24837 -14.01732,14.91409 -18.5918,25.9961 -8.41111,20.7493 -13.20816,45.50736 -14.38867,74.27344 -0.14756,5.4231 1.99301,9.84279 6.41993,13.26172 4.57444,3.18313 9.59094,4.83328 15.05077,4.95117 5.45986,0.23579 10.55142,-1.1789 15.27344,-4.24414 4.72203,-3.06525 7.23027,-7.36721 7.52539,-12.9082 l 36.08008,0.17578 c 0,4.47995 1.54962,8.25311 4.64843,11.31836 3.09884,3.06524 6.86219,4.89295 11.28907,5.48241 4.42691,0.70737 8.77925,0.70737 13.0586,0 4.42688,-0.70736 8.11512,-2.59295 11.0664,-5.6582 2.95125,-3.18314 4.35459,-7.01612 4.20703,-11.49609 -1.18051,-30.06291 -6.27208,-55.52734 -15.27343,-76.39453 -4.86961,-11.19991 -11.58391,-19.86563 -20.14258,-25.99609 -8.41111,-6.13048 -18.14955,-9.0197 -29.2168,-8.66602 z m -594.39648,0.15625 c -3.74444,0.0148 -7.55421,0.13921 -11.42774,0.375 -13.28071,0 -20.65913,5.89421 -22.13477,17.68359 -3.39397,27.35135 -3.24573,57.76819 0.44337,91.25 0.44268,4.71576 2.58131,8.72437 6.41797,12.0254 3.98419,3.30101 8.85439,5.12873 14.60937,5.48241 l 12.39649,0.53125 c 1.9183,0.1179 6.27066,0.17578 13.05859,0.17578 8.41111,0.1179 17.48542,-0.58847 27.2246,-2.12109 13.87097,-2.35788 24.64505,-7.95875 32.31837,-16.80078 5.31227,-6.83784 7.1564,-14.14675 5.53319,-21.92774 -1.6232,-7.89887 -6.34516,-15.20777 -14.16601,-21.92773 7.2306,-8.48835 10.69748,-16.85877 10.40234,-25.11132 -0.14756,-8.37046 -4.13225,-15.91679 -11.95312,-22.63673 -7.52572,-6.71993 -17.78004,-11.43494 -30.76563,-14.14647 -10.07119,-1.94526 -20.72376,-2.89578 -31.95702,-2.85157 z m 435.46874,0.19922 c -13.42827,0 -25.52865,0.0579 -36.30078,0.17578 h -36.30078 c -5.60742,0.11789 -10.32938,1.41485 -14.16601,3.89063 -3.83666,2.47575 -6.19665,5.48273 -7.08203,9.01952 -0.73783,3.41893 -0.66468,6.83695 0.2207,10.25586 0.88538,3.41893 3.24735,6.36603 7.08398,8.8418 3.83666,2.35788 8.4835,3.47922 13.94336,3.36133 h 14.83008 c -0.59026,26.76188 -0.81163,51.1648 -0.66406,73.21094 0.14756,4.36205 1.77225,8.0754 4.87109,11.14062 3.09884,2.94735 6.78708,4.77506 11.0664,5.48243 4.42692,0.58946 8.78123,0.53158 13.06055,-0.17579 4.27935,-0.70737 7.89444,-2.59491 10.84571,-5.66015 3.09883,-3.06525 4.57334,-6.83644 4.42578,-11.31641 -0.14757,-21.92823 0.0738,-46.21539 0.66406,-72.85937 h 13.72461 c 5.45983,0 10.03356,-1.17925 13.72266,-3.53711 3.83666,-2.47578 6.19862,-5.42289 7.08398,-8.8418 0.88539,-3.53682 0.88539,-7.01467 0,-10.4336 -0.88536,-3.53682 -3.24732,-6.48391 -7.08398,-8.84179 -3.6891,-2.47578 -8.33792,-3.71289 -13.94532,-3.71289 z m -120.24609,0.043 c -2.17657,-0.0295 -4.37053,0.13266 -6.58398,0.48634 -4.27935,0.58946 -7.96953,2.35734 -11.06837,5.30469 -3.09881,2.94733 -4.72158,6.60278 -4.86913,10.96483 -0.14757,2.59367 6.6e-4,7.95714 0.44336,16.0918 0.44269,7.5452 0.66406,14.44302 0.66406,20.69141 0,6.95573 -0.29646,13.32282 -0.88672,19.09961 -0.59026,6.60204 -2.213,11.78794 -4.86915,15.56055 -2.65612,3.7726 -6.12299,5.71804 -10.40234,5.83593 -5.45983,0.23579 -9.44453,-3.94845 -11.95312,-12.55468 -2.361,-8.72414 -3.54102,-19.21757 -3.54102,-31.47852 0.14757,-4.47995 0.29385,-9.96117 0.44141,-16.44531 0.29513,-6.48416 0.44336,-9.7864 0.44336,-9.9043 v -2.65235 c 0.14756,-0.94312 0.2207,-1.64951 0.2207,-2.12109 l 0.22266,-0.70899 c 0.14757,-4.47995 -1.25576,-8.25118 -4.20703,-11.3164 -2.95127,-3.06524 -6.63952,-4.95279 -11.06641,-5.66015 -4.27935,-0.82526 -8.63171,-0.88315 -13.05859,-0.17578 -4.27935,0.58946 -7.96952,2.41717 -11.06836,5.48242 -3.09884,2.94734 -4.72158,6.66065 -4.86915,11.14062 l -0.2207,5.6582 c -0.44269,13.55779 -0.59091,23.10743 -0.44336,28.64844 0.29514,6.60205 0.73788,12.61401 1.32813,18.03711 1.91833,17.91985 7.23124,32.30418 15.9375,43.15039 9.88675,11.55359 24.56849,16.97689 44.04688,16.26953 12.54287,-0.47157 23.2419,-3.53642 32.0957,-9.19531 8.85379,-5.65891 15.1985,-13.02765 19.03516,-22.10547 3.83665,-8.84203 5.829,-19.10001 5.97655,-30.77148 V 562.3516 c 0.14757,-4.47996 -1.32889,-8.25116 -4.42773,-11.3164 -2.95127,-3.18314 -6.56635,-5.12857 -10.8457,-5.83594 -2.13968,-0.41263 -4.29805,-0.63459 -6.47461,-0.66407 z m -167.72461,31.08009 c 6.64037,0.23576 11.88014,3.36047 15.7168,9.37304 3.9842,6.24839 6.0497,13.32183 6.19726,21.2207 0.29514,8.48835 -1.47587,15.915 -5.31249,22.28126 -3.83666,6.36625 -9.44409,9.55077 -16.82228,9.55077 -6.7879,0.1179 -12.02576,-2.88906 -15.71483,-9.01952 -3.6891,-6.13048 -5.46007,-13.55712 -5.31251,-22.28126 0.29513,-8.60624 2.21238,-15.85725 5.75391,-21.75195 3.68909,-6.01257 8.8538,-9.13728 15.49414,-9.37304 z m -136.79101,4.24414 c 6.93546,0 12.2484,1.00165 15.9375,3.00586 3.98421,2.35786 4.27873,4.71633 0.88476,7.07422 -3.09884,2.12209 -8.70629,3.18358 -16.82226,3.18358 z m -117.53516,1.76757 c 6.640353,7.30943 11.58368,20.16132 14.830078,38.55274 L 54.8125,620.00195 c 3.098831,-17.68405 7.745696,-30.4761 13.94336,-38.375 z m 703.21679,0 c 6.64038,7.30943 11.58369,20.16132 14.83009,38.55274 l -28.7754,-0.17774 c 3.09884,-17.68405 7.74766,-30.4761 13.94531,-38.375 z m -585.46093,42.26563 c 8.8538,0 15.64321,1.00166 20.36523,3.00586 5.16473,2.00419 6.49294,4.24493 3.98438,6.7207 -3.39397,3.5368 -11.5116,4.9515 -24.34961,4.24414 z" /><path
         id="path51"
         style="font-size:197.846px;line-height:1.25;font-family:Knicknack;-inkscape-font-specification:Knicknack;text-align:center;text-anchor:middle;fill:none;fill-opacity:1;stroke:#000000;stroke-width:80.1;stroke-dasharray:none;stroke-opacity:1;paint-order:stroke markers fill"
         d="m 547.91407,320.4336 c -10.1819,0.0884 -19.86496,2.56461 -29.05079,7.42772 -11.65752,5.77681 -20.73378,14.26493 -27.22656,25.46486 -6.19767,10.72833 -9.44316,21.98795 -9.73828,33.77734 0,11.55359 3.32057,22.69353 9.96094,33.42187 6.49278,10.61045 16.00983,18.68555 28.55273,24.22656 6.34524,2.82946 14.09325,4.48155 23.24219,4.95313 9.14894,0.58947 17.55912,-0.059 25.23242,-1.94532 8.41113,-1.88629 15.34679,-4.8334 20.80664,-8.8418 5.45986,-4.12627 8.26455,-8.72548 8.41211,-13.79491 0.7378,-11.67149 1.84272,-21.57431 3.31836,-29.70898 0.59025,-3.41893 0.59025,-6.2483 0,-8.48829 -1.47564,-5.54101 -6.78661,-9.25433 -15.93554,-11.14062 -2.95128,-0.47158 -12.47026,-1.65081 -28.5547,-3.53712 -7.82086,-0.70735 -13.42829,1.53338 -16.82226,6.72071 -3.68909,5.18733 -3.83537,10.84607 -0.4414,16.97657 3.68908,6.71994 10.18201,10.08007 19.4785,10.08007 l -1.32812,9.01758 c -8.70624,2.59366 -15.56878,1.8873 -20.58593,-2.1211 -6.78794,-5.30521 -9.73891,-14.44183 -8.85352,-27.41015 0.59026,-11.90729 3.91083,-20.75055 9.96094,-26.52734 6.78792,-6.83785 14.23946,-6.12953 22.35547,2.12304 3.54152,3.41892 7.67249,5.53998 12.39453,6.36523 4.86959,0.70737 9.22389,0.23646 13.06055,-1.41406 3.9842,-1.65051 7.30479,-3.8314 9.96093,-6.54296 2.80371,-2.82946 4.13194,-6.18959 3.98438,-10.08008 0,-3.89051 -1.77097,-7.54592 -5.31251,-10.96485 -10.03432,-9.5494 -22.20977,-15.32588 -36.52344,-17.33007 -3.50461,-0.50105 -6.95369,-0.73651 -10.34764,-0.70703 z m 321.39453,2.49804 c -1.1068,0.0443 -2.23138,0.1552 -3.37501,0.33203 -4.42689,0.70736 -7.96886,2.6528 -10.62499,5.83594 l -39.6211,47.74609 -34.3086,-42.26562 c -3.83663,-5.18734 -9.07448,-8.31005 -15.71484,-9.3711 -6.64037,-1.17893 -12.76563,-0.17727 -18.37304,3.00586 -5.16474,2.94735 -7.89433,7.42686 -8.18946,13.43946 0,3.30102 -0.14628,18.50941 -0.44141,45.625 -0.29511,26.8798 -0.44335,42.03029 -0.44335,45.44922 0,4.36208 1.47451,8.07538 4.42578,11.14062 3.09883,2.94734 6.78901,4.77506 11.06836,5.48242 4.42691,0.70736 8.77925,0.70736 13.05859,0 4.42691,-0.70736 8.11709,-2.59491 11.06836,-5.66016 3.09884,-3.06522 4.64844,-6.83839 4.64844,-11.31835 0,-5.89469 -0.0751,-11.14042 -0.22265,-15.73829 v -15.91601 l 14.83007,18.03906 c 4.4269,5.65891 10.62532,8.48829 18.59375,8.48829 8.11601,0 14.3144,-2.77149 18.59375,-8.31251 l 13.94336,-17.15234 v 15.03125 c 0.14756,4.36208 0.22266,9.37235 0.22266,15.03125 0,4.36208 1.4745,8.07538 4.42578,11.14062 3.09883,2.94735 6.78902,4.77507 11.06835,5.48242 4.42692,0.70737 8.77926,0.70737 13.05861,0 4.42689,-0.70735 8.11709,-2.59492 11.06835,-5.66015 3.09883,-3.06524 4.64844,-6.83645 4.64844,-11.3164 0,-3.30103 0.14627,-18.27397 0.4414,-44.91797 0.29513,-26.64402 0.44336,-41.61695 0.44336,-44.91797 0.14757,-3.8905 -1.2538,-7.42624 -4.20508,-10.60938 -2.95126,-3.18313 -6.49322,-5.42387 -10.62499,-6.72071 -1.99212,-0.70735 -4.0576,-1.14932 -6.19727,-1.32617 -1.06983,-0.0884 -2.15884,-0.11071 -3.26562,-0.0664 z m -532.61329,0.1543 c -10.18188,0.23579 -19.18304,3.53608 -27.00391,9.90234 -7.82086,6.24837 -14.01928,14.91407 -18.59374,25.9961 -8.41113,20.74932 -13.20621,45.50733 -14.38673,74.27344 -0.14755,5.42311 1.99106,9.84475 6.41798,13.26366 4.57447,3.18315 9.59288,4.83328 15.05273,4.95117 5.45986,0.2358 10.54945,-1.17889 15.27149,-4.24414 4.72203,-3.06522 7.23222,-7.36913 7.52734,-12.91015 l 36.07812,0.17774 c 0,4.47995 1.54961,8.25311 4.64844,11.31835 3.09883,3.06525 6.86215,4.89296 11.28907,5.48242 4.42689,0.70737 8.77924,0.70737 13.05859,0 4.42689,-0.70735 8.11708,-2.59492 11.06836,-5.66015 2.95126,-3.18314 4.35264,-7.01417 4.20507,-11.49414 -1.18051,-30.06293 -6.27206,-55.52928 -15.27343,-76.39648 -4.86961,-11.19993 -11.5839,-19.86367 -20.14258,-25.99415 -8.41112,-6.13047 -18.14954,-9.0197 -29.2168,-8.66601 z m 328.91992,0 c -10.18188,0.23579 -19.18304,3.53608 -27.0039,9.90234 -7.82087,6.24837 -14.01929,14.91407 -18.59375,25.9961 -8.41113,20.74932 -13.20621,45.50733 -14.38672,74.27344 -0.14756,5.42311 1.99105,9.84475 6.41797,13.26366 4.57447,3.18315 9.59288,4.83328 15.05273,4.95117 5.45986,0.2358 10.54945,-1.17889 15.27149,-4.24414 4.72203,-3.06522 7.23026,-7.36913 7.52538,-12.91015 l 36.08008,0.17774 c 0,4.47995 1.54961,8.25311 4.64845,11.31835 3.09882,3.06525 6.86215,4.89296 11.28906,5.48242 4.42689,0.70737 8.77924,0.70737 13.05859,0 4.42689,-0.70735 8.11708,-2.59492 11.06836,-5.66015 2.95126,-3.18314 4.35264,-7.01417 4.20508,-11.49414 -1.18052,-30.06293 -6.27206,-55.52928 -15.27344,-76.39648 -4.8696,-11.19993 -11.58389,-19.86367 -20.14258,-25.99415 -8.41112,-6.13047 -18.14953,-9.0197 -29.2168,-8.66601 z m 257.64648,0.35351 c -6.19766,-0.11789 -11.4355,1.53225 -15.71483,4.95117 -4.13179,3.30103 -6.3455,7.48721 -6.64063,12.55665 -1.32807,29.35556 -1.25494,59.65462 0.22071,90.89648 0.29511,4.95155 2.50884,9.13577 6.64062,12.55468 4.27935,3.41893 9.44404,5.12891 15.49413,5.12891 4.42692,-0.11789 14.46179,-0.17578 30.10353,-0.17578 15.64172,0 25.74975,-0.0599 30.32421,-0.17773 5.45986,0 10.03357,-1.17924 13.72266,-3.53711 3.83659,-2.47578 6.19859,-5.42288 7.08399,-8.84179 1.0329,-3.53683 1.1061,-7.01468 0.2207,-10.4336 -0.8854,-3.53682 -3.2454,-6.48391 -7.08203,-8.8418 -3.83666,-2.47577 -8.6337,-3.71484 -14.38867,-3.71484 -2.80371,0.11789 -9.14841,0.17773 -19.03516,0.17773 -9.7392,0 -16.01074,0.0599 -18.81446,0.17774 v -11.31837 h 7.5254 c 4.13178,-0.11788 6.71509,-0.17773 7.74804,-0.17773 6.93549,0 12.24646,-1.8277 15.93555,-5.48242 3.98421,-3.6547 5.97656,-7.72121 5.97656,-12.20117 0.14756,-4.71575 -1.84478,-8.84208 -5.97656,-12.37891 -3.98422,-3.53682 -9.29518,-5.30469 -15.93555,-5.30469 -1.03295,0 -3.61626,0.0579 -7.74804,0.17578 h -7.7461 v -8.66406 h 37.18554 c 5.60743,-0.11789 10.25623,-1.41485 13.94532,-3.89062 3.83666,-2.47577 6.12346,-5.42288 6.86136,-8.8418 0.8853,-3.53681 0.8853,-7.01467 0,-10.43359 -0.8854,-3.53682 -3.24737,-6.48392 -7.08401,-8.8418 -3.83666,-2.35788 -8.5586,-3.47922 -14.16603,-3.36133 z M 338.6875,360.57618 c 6.64035,7.30941 11.58368,20.15933 14.83008,38.55078 l -28.77539,-0.17579 c 3.09883,-17.68407 7.74763,-30.47611 13.94531,-38.37499 z m 328.91993,0 c 6.64035,7.30941 11.58367,20.15933 14.83007,38.55078 l -28.77539,-0.17579 c 3.09883,-17.68407 7.74763,-30.47611 13.94532,-38.37499 z" /><path
         id="path37"
         style="font-size:197.846px;line-height:1.25;font-family:Knicknack;-inkscape-font-specification:Knicknack;text-align:center;text-anchor:middle;fill:url(#linearGradient49);stroke:url(#linearGradient45);stroke-width:64;stroke-dasharray:none;stroke-opacity:1;paint-order:stroke markers fill"
         d="m 982.82448,570.53314 c -19.12506,0 -33.69855,6.52956 -43.72272,19.58736 -9.89227,12.92588 -14.70652,30.13721 -14.44272,51.63642 0.13189,20.97159 5.20939,38.31684 15.23355,52.0341 9.89227,13.4535 24.13715,20.11476 42.73461,19.98287 18.5975,0 32.9094,-6.793 42.9336,-20.37837 10.288,-13.58539 15.4309,-31.32573 15.4309,-53.22063 0.2638,-20.83971 -4.7483,-37.65589 -15.0363,-50.4499 -10.0242,-12.79399 -24.4015,-19.19185 -43.13092,-19.19185 z m -132.03579,0.37147 c -3.3469,0.0165 -6.7522,0.15575 -10.21448,0.41954 -11.87073,0 -18.4658,6.59432 -19.78477,19.78402 -3.03364,30.60009 -2.90114,64.62978 0.39629,102.0885 0.39569,5.27589 2.30726,9.76063 5.73659,13.45375 3.5612,3.6931 7.91434,5.73792 13.05833,6.13361 l 11.08038,0.59435 c 1.71464,0.1319 5.60492,0.19666 11.67219,0.19666 7.51812,0.1319 15.62904,-0.65837 24.33423,-2.37303 12.39832,-2.63795 22.02682,-8.90408 28.88545,-18.79635 4.7483,-7.65002 6.39837,-15.82707 4.9475,-24.53227 -1.45087,-8.83709 -5.67151,-17.01413 -12.66204,-24.53227 6.46294,-9.49658 9.56175,-18.86122 9.29795,-28.094 -0.1319,-9.36468 -3.69354,-17.80735 -10.68409,-25.32547 -6.72673,-7.51812 -15.89237,-12.79316 -27.49931,-15.82677 -9.00196,-2.17631 -18.52357,-3.23973 -28.56422,-3.19027 z m 273.44631,0.71672 c -1.9455,-0.0659 -3.9719,0.22985 -6.0822,0.88934 -4.2207,1.31897 -7.717,4.08929 -10.4868,8.30998 l -16.0262,23.94011 -14.64,-23.5446 c -2.506,-4.08881 -5.8027,-6.79217 -9.8915,-8.11114 -4.0888,-1.45087 -7.9808,-1.51782 -11.6739,-0.19885 -3.6931,1.31898 -7.0569,3.36378 -10.0905,6.13362 -3.0337,2.63792 -4.7474,6.06682 -5.1431,10.28751 -0.3957,4.22071 0.6591,8.57374 3.1651,13.05824 l 24.137,38.3837 -27.1048,40.5579 c -2.506,4.08879 -3.6933,8.24319 -3.5614,12.46388 0.1319,4.08882 1.5841,7.64941 4.354,10.68302 2.9017,2.90174 6.133,5.1452 9.6942,6.72797 3.5612,1.45087 7.4515,1.58258 11.6722,0.3955 4.3526,-1.31895 7.9796,-4.08929 10.8814,-8.30998 l 17.2132,-25.91763 6.1329,10.09085 7.1227,11.07853 3.1651,4.94709 c 2.506,4.08882 5.8044,6.85695 9.8933,8.3078 4.0888,1.45087 7.979,1.51782 11.6722,0.19885 3.6929,-1.18708 7.0568,-3.16493 10.0905,-5.93477 3.0336,-2.76984 4.6819,-6.26565 4.9457,-10.48636 0.3957,-4.22069 -0.659,-8.57373 -3.165,-13.05824 l -25.7204,-41.15224 25.7204,-38.58036 c 2.6379,-4.08882 3.8251,-8.2432 3.5613,-12.46389 -0.1319,-4.22071 -1.6494,-7.78128 -4.5512,-10.68302 -2.9017,-3.03364 -6.133,-5.2771 -9.6942,-6.72797 -1.7806,-0.79138 -3.6445,-1.21889 -5.59,-1.28484 z m -141.6078,34.32595 c 5.93538,0.26377 10.61886,3.75962 14.04819,10.48635 3.56121,6.99056 5.40741,14.90417 5.53931,23.74126 0.2638,9.49658 -1.3192,17.80535 -4.74848,24.92778 -3.42933,7.12243 -8.44143,10.6852 -15.03629,10.6852 -6.06725,0.1319 -10.75075,-3.23222 -14.04818,-10.09085 -3.29741,-6.85864 -4.87863,-15.1674 -4.74674,-24.92778 0.2638,-9.62847 1.9775,-17.74075 5.14303,-24.33561 3.29743,-6.72673 7.91381,-10.22258 13.84916,-10.48635 z m -122.26822,4.74825 c 6.19914,0 10.94802,1.12063 14.24545,3.36289 3.56122,2.63792 3.82447,5.27653 0.79083,7.91448 -2.76984,2.37415 -7.78196,3.56173 -15.03628,3.56173 z m 0.19727,49.26338 c 7.91381,0 13.98241,1.12064 18.2031,3.36289 4.6164,2.24225 5.80187,4.74914 3.55962,7.51898 -3.03364,3.95689 -10.28769,5.53963 -21.76272,4.74825 z"
         transform="scale(1.1187781,0.89383228)" /><path
         id="path36"
         style="font-size:197.846px;line-height:1.25;font-family:Knicknack;-inkscape-font-specification:Knicknack;text-align:center;text-anchor:middle;fill:url(#linearGradient16);stroke:url(#linearGradient28);stroke-width:64;stroke-dasharray:none;stroke-opacity:1;paint-order:stroke markers fill"
         d="m 288.98017,570.53314 c -19.12505,0 -33.70029,6.52956 -43.72446,19.58736 -9.89227,12.92588 -14.70652,30.13721 -14.44272,51.63642 0.13189,20.97159 5.20939,38.31684 15.23355,52.0341 9.89227,13.4535 24.13715,20.11476 42.73461,19.98287 18.59749,0 32.90947,-6.793 42.93363,-20.37837 10.28796,-13.58539 15.43083,-31.32573 15.43083,-53.22063 0.26379,-20.83971 -4.74832,-37.65589 -15.03628,-50.4499 -10.02417,-12.79399 -24.3998,-19.19185 -43.12916,-19.19185 z M 59.675526,570.7298 c -9.100888,0.26379 -17.146426,3.95828 -24.136963,11.08071 -6.990538,6.99053 -12.53089,16.68555 -16.619695,29.08386 -7.518124,23.21387 -11.8041381,50.91264 -12.8593135,83.0955 -0.131897,6.06725 1.7814256,11.0119 5.7383335,14.83692 4.088805,3.56122 8.572688,5.40737 13.452874,5.53926 4.880189,0.2638 9.43119,-1.31892 13.651892,-4.74825 4.220702,-3.42933 6.462645,-8.24227 6.726437,-14.44141 l 32.249539,0.19666 c 0,5.01207 1.383343,9.2334 4.153178,12.66273 2.769837,3.42933 6.133621,5.47413 10.090529,6.13361 3.956908,0.79139 7.848918,0.79139 11.673943,0 3.95689,-0.79138 7.25356,-2.90094 9.89151,-6.33027 2.63792,-3.56123 3.89053,-7.84949 3.75863,-12.86158 -1.05518,-33.63372 -5.60444,-62.12277 -13.65014,-85.46853 C 99.443668,596.9788 93.44221,587.28378 85.792189,580.42515 78.274062,573.56651 69.567796,570.33411 59.675526,570.7298 Z m 628.557884,0 c -9.10088,0.26379 -17.14816,3.95828 -24.13871,11.08071 -6.99053,6.99053 -12.52913,16.68555 -16.61795,29.08386 -7.51812,23.21387 -11.80588,50.91264 -12.86106,83.0955 -0.13189,6.06725 1.78142,11.0119 5.73834,14.83692 4.08879,3.56122 8.5727,5.40737 13.45287,5.53926 4.8802,0.2638 9.4312,-1.31892 13.65189,-4.74825 4.22071,-3.42933 6.46265,-8.24227 6.72644,-14.44141 l 32.24954,0.19666 c 0,5.01207 1.3851,9.2334 4.15492,12.66273 2.76984,3.42933 6.13364,5.47413 10.09053,6.13361 3.95692,0.79139 7.84718,0.79139 11.6722,0 3.95689,-0.79138 7.25356,-2.90094 9.89151,-6.33027 2.63792,-3.56123 3.89227,-7.84949 3.76038,-12.86158 -1.05518,-33.63372 -5.60619,-62.12277 -13.65189,-85.46853 -4.35261,-12.53021 -10.35407,-22.22523 -18.00409,-29.08386 -7.51812,-6.85864 -16.22265,-10.09104 -26.11492,-9.69535 z m -531.29077,0.17481 c -3.3469,0.0165 -6.7522,0.15575 -10.21448,0.41954 -11.87073,0 -18.4658,6.59432 -19.78477,19.78402 -3.03364,30.60009 -2.90114,64.62978 0.39629,102.0885 0.39569,5.27589 2.30726,9.76063 5.73659,13.45375 3.5612,3.6931 7.91434,5.73792 13.05833,6.13361 l 11.08038,0.59435 c 1.71464,0.1319 5.60492,0.19666 11.67219,0.19666 7.51812,0.1319 15.62904,-0.65837 24.33423,-2.37303 12.39832,-2.63795 22.02854,-8.90408 28.8872,-18.79635 4.74828,-7.65002 6.39662,-15.82707 4.94575,-24.53227 -1.45087,-8.83709 -5.67151,-17.01413 -12.66204,-24.53227 6.46294,-9.49658 9.56175,-18.86122 9.29795,-28.094 -0.1319,-9.36468 -3.69354,-17.80735 -10.68409,-25.32547 -6.72673,-7.51812 -15.89237,-12.79316 -27.49931,-15.82677 -9.00196,-2.17631 -18.52357,-3.23973 -28.56422,-3.19027 z m 389.23603,0.22288 c -12.00263,0 -22.81834,0.0648 -32.44681,0.19666 h -32.44681 c -5.0121,0.1319 -9.23274,1.58291 -12.66204,4.35275 -3.42933,2.76982 -5.53877,6.13396 -6.33015,10.09085 -0.65949,3.82502 -0.59411,7.64903 0.19727,11.47403 0.79138,3.82502 2.90259,7.12217 6.33189,9.89201 3.42933,2.63795 7.58283,3.89248 12.46303,3.76058 h 13.2556 c -0.52759,29.94061 -0.72546,57.24206 -0.59356,81.9068 0.1319,4.88017 1.5841,9.03458 4.35394,12.46388 2.76984,3.29743 6.06651,5.34224 9.89151,6.13362 3.95692,0.65948 7.84894,0.59472 11.67394,-0.19666 3.82502,-0.79139 7.0563,-2.90313 9.69424,-6.33246 2.76984,-3.42933 4.0878,-7.64846 3.95591,-12.66055 -0.1319,-24.53282 0.066,-51.70477 0.59356,-81.51347 h 12.2675 c 4.88017,0 8.96832,-1.31932 12.26575,-3.95724 3.42933,-2.76985 5.54053,-6.06701 6.33189,-9.89201 0.79139,-3.95692 0.79139,-7.84786 0,-11.67288 -0.79136,-3.95692 -2.90256,-7.25406 -6.33189,-9.89201 -3.29743,-2.76984 -7.4527,-4.1539 -12.46477,-4.1539 z m -107.47984,0.0481 c -1.94549,-0.033 -3.90652,0.14841 -5.88498,0.5441 -3.82502,0.65948 -7.12342,2.63734 -9.89326,5.93477 -2.76982,3.29741 -4.2203,7.38705 -4.35219,12.26722 -0.1319,2.90174 5.9e-4,8.90227 0.39629,18.00315 0.39569,8.4414 0.59356,16.15854 0.59356,23.1491 0,7.78191 -0.26499,14.90528 -0.79258,21.36822 -0.52759,7.38622 -1.97805,13.18809 -4.3522,17.4088 -2.37413,4.22071 -5.47293,6.39722 -9.29795,6.52912 -4.88017,0.26379 -8.44183,-4.41744 -10.68409,-14.04591 -2.11033,-9.76037 -3.16507,-21.50019 -3.16507,-35.21748 0.1319,-5.01207 0.26265,-11.14433 0.39454,-18.39865 0.2638,-7.25433 0.39629,-10.94881 0.39629,-11.08071 v -2.96739 c 0.1319,-1.05515 0.19727,-1.84544 0.19727,-2.37303 l 0.19902,-0.7932 c 0.1319,-5.01207 -1.12244,-9.23124 -3.76038,-12.66054 -2.63794,-3.42933 -5.93462,-5.54108 -9.89151,-6.33246 -3.82502,-0.92328 -7.7153,-0.98805 -11.67219,-0.19666 -3.82502,0.65948 -7.12342,2.70428 -9.89326,6.13361 -2.76984,3.29743 -4.2203,7.4518 -4.3522,12.46389 l -0.19727,6.33027 c -0.39569,15.16816 -0.52818,25.85208 -0.39629,32.05125 0.2638,7.38622 0.65954,14.11227 1.18712,20.17952 1.71467,20.04834 6.46352,36.14121 14.24546,48.27571 8.83709,12.92591 21.96011,18.99338 39.37052,18.202 11.21122,-0.52759 20.77436,-3.95647 28.68817,-10.28751 7.91381,-6.33107 13.58491,-14.57506 17.01424,-24.73112 3.42933,-9.89227 5.21015,-21.36868 5.34204,-34.42646 v -55.397 c 0.1319,-5.01209 -1.18781,-9.23122 -3.95765,-12.66055 -2.63794,-3.56122 -5.86922,-5.73773 -9.69424,-6.52912 -1.91251,-0.46164 -3.84173,-0.70996 -5.78721,-0.74294 z m -149.91768,34.77172 c 5.93538,0.26377 10.61886,3.75962 14.04819,10.48635 3.5612,6.99056 5.40741,14.90417 5.53931,23.74126 0.2638,9.49658 -1.31918,17.80535 -4.74848,24.92778 -3.42933,7.12243 -8.44143,10.6852 -15.03629,10.6852 -6.06725,0.1319 -10.74902,-3.23222 -14.04643,-10.09085 -3.29743,-6.85864 -4.88038,-15.1674 -4.74849,-24.92778 0.2638,-9.62847 1.9775,-17.74075 5.14303,-24.33561 3.29743,-6.72673 7.91381,-10.22258 13.84916,-10.48635 z m -122.26822,4.74825 c 6.19914,0 10.94802,1.12063 14.24545,3.36289 3.56122,2.63792 3.82447,5.27653 0.79083,7.91448 -2.76984,2.37415 -7.78196,3.56173 -15.03628,3.56173 z m -105.056722,1.97752 c 5.935362,8.17763 10.353868,22.55604 13.255603,43.13196 l -25.718628,-0.19885 c 2.769835,-19.78453 6.923353,-34.09599 12.463025,-42.93311 z m 628.557882,0 c 5.93538,8.17763 10.35387,22.55604 13.25561,43.13196 l -25.72038,-0.19885 c 2.76984,-19.78453 6.92511,-34.09599 12.46477,-42.93311 z M 166.7102,659.95891 c 7.91381,0 13.98241,1.12064 18.2031,3.36289 4.6164,2.24225 5.8036,4.74914 3.56137,7.51898 -3.03364,3.95689 -10.28944,5.53963 -21.76447,4.74825 z"
         transform="scale(1.1187781,0.89383228)" /><path
         id="path5"
         style="font-size:197.846px;line-height:1.25;font-family:Knicknack;-inkscape-font-specification:Knicknack;text-align:center;text-anchor:middle;fill:url(#linearGradient40);stroke:url(#linearGradient42);stroke-width:64;stroke-dasharray:none;paint-order:stroke markers fill"
         d="m 489.74329,320.45564 c -9.10091,0.0989 -17.75594,2.86924 -25.96653,8.30998 -10.41987,6.46297 -18.53252,15.95929 -24.33598,28.48952 -5.53968,12.00262 -8.4406,24.59964 -8.70439,37.78935 0,12.92591 2.96803,25.38903 8.90341,37.39166 5.80346,11.87074 14.3101,20.90499 25.52135,27.10415 5.67158,3.16553 12.597,5.01386 20.77462,5.54145 8.17762,0.65948 15.69491,-0.066 22.55355,-2.17638 7.51814,-2.11034 13.71746,-5.4075 18.59765,-9.89201 4.8802,-4.61639 7.38712,-9.76188 7.51902,-15.43345 0.65947,-13.05781 1.64708,-24.13687 2.96605,-33.23776 0.52759,-3.82502 0.52759,-6.99046 0,-9.49651 -1.31897,-6.19916 -6.06609,-10.35354 -14.2437,-12.46388 -2.63795,-0.52759 -11.14632,-1.84689 -25.52311,-3.95725 -6.99054,-0.79137 -12.00264,1.71551 -15.03628,7.51898 -3.29743,5.80347 -3.42818,12.13435 -0.39454,18.99301 3.29742,7.51813 9.10101,11.27737 17.41052,11.27737 l -1.18712,10.08867 c -7.78192,2.90173 -13.91588,2.11147 -18.40037,-2.37304 -6.06728,-5.93536 -8.70495,-16.1572 -7.91356,-30.66588 0.52759,-13.32161 3.49562,-23.21526 8.90341,-29.67821 6.06726,-7.65003 12.72769,-6.85758 19.98204,2.37522 3.16552,3.82501 6.85792,6.198 11.07863,7.12128 4.3526,0.79139 8.24461,0.26454 11.67394,-1.58202 3.56121,-1.84656 6.52926,-4.28649 8.9034,-7.32013 2.50605,-3.16553 3.69326,-6.92477 3.56137,-11.27737 0,-4.35261 -1.58295,-8.44221 -4.74849,-12.26723 -8.969,-10.68366 -19.85181,-17.14626 -32.64583,-19.38851 -3.13254,-0.56056 -6.21544,-0.82399 -9.24906,-0.79101 z m 287.27281,2.79476 c -0.98929,0.0496 -1.99448,0.17363 -3.01669,0.37147 -3.9569,0.79138 -7.12282,2.96789 -9.49696,6.52912 l -35.41462,53.41728 -30.66613,-47.28585 c -3.42931,-5.80348 -8.11107,-9.2971 -14.04643,-10.48418 -5.93538,-1.31897 -11.41034,-0.19833 -16.42242,3.36289 -4.61641,3.29743 -7.05621,8.30901 -7.32,15.03577 0,3.69311 -0.13075,20.70792 -0.39455,51.04425 -0.26378,30.07253 -0.39628,47.02257 -0.39628,50.84759 0,4.8802 1.31796,9.03456 3.9559,12.46389 2.76984,3.29742 6.06824,5.34223 9.89326,6.13361 3.95692,0.79138 7.84718,0.79138 11.67219,0 3.95692,-0.79138 7.25532,-2.90313 9.89326,-6.33246 2.76984,-3.42931 4.15492,-7.65065 4.15492,-12.66273 0,-6.59485 -0.0671,-12.46365 -0.19901,-17.60765 v -17.80649 l 13.2556,20.18171 c 3.9569,6.33107 9.49725,9.49651 16.61969,9.49651 7.25435,0 12.79468,-3.10068 16.6197,-9.29985 l 12.46302,-19.18966 v 16.81663 c 0.1319,4.8802 0.19902,10.48558 0.19902,16.81663 0,4.8802 1.31796,9.03456 3.95591,12.46389 2.76983,3.29743 6.06824,5.34224 9.89325,6.13361 3.95692,0.79139 7.84718,0.79139 11.6722,0 3.9569,-0.79137 7.25532,-2.90314 9.89325,-6.33245 2.76984,-3.42933 4.15493,-7.64847 4.15493,-12.66055 0,-3.69312 0.13074,-20.44451 0.39454,-50.25324 0.26379,-29.80874 0.39629,-46.56013 0.39629,-50.25324 0.1319,-4.35261 -1.12069,-8.30832 -3.75864,-11.86954 -2.63793,-3.56122 -5.80385,-6.06811 -9.49696,-7.51898 -1.78062,-0.79137 -3.62681,-1.28584 -5.53932,-1.48369 -0.95625,-0.0989 -1.92964,-0.12386 -2.91892,-0.0743 z m -476.06696,0.17262 c -9.10089,0.2638 -17.14642,3.95609 -24.13696,11.07853 -6.99054,6.99054 -12.53089,16.68553 -16.61969,29.08386 -7.51814,23.21389 -11.80414,50.91261 -12.85932,83.0955 -0.13189,6.06726 1.77967,11.01409 5.73659,14.8391 4.08881,3.56123 8.57443,5.40737 13.45462,5.53926 4.8802,0.2638 9.42944,-1.31892 13.65015,-4.74825 4.2207,-3.42931 6.46439,-8.24443 6.72818,-14.4436 l 32.24779,0.19885 c 0,5.01208 1.38509,9.2334 4.15493,12.66273 2.76983,3.42933 6.13361,5.47413 10.09053,6.13361 3.9569,0.79139 7.84717,0.79139 11.67219,0 3.9569,-0.79137 7.25531,-2.90314 9.89326,-6.33245 2.63793,-3.56123 3.89053,-7.8473 3.75863,-12.8594 -1.05518,-33.63374 -5.60617,-62.12494 -13.65189,-85.47071 -4.35261,-12.53023 -10.35406,-22.22303 -18.00409,-29.08168 -7.51813,-6.85864 -16.22264,-10.09104 -26.11492,-9.69535 z m 293.99925,0 c -9.10089,0.2638 -17.14642,3.95609 -24.13696,11.07853 -6.99054,6.99054 -12.53089,16.68553 -16.61969,29.08386 -7.51814,23.21389 -11.80414,50.91261 -12.85932,83.0955 -0.13189,6.06726 1.77967,11.01409 5.73659,14.8391 4.08881,3.56123 8.57443,5.40737 13.45462,5.53926 4.8802,0.2638 9.42944,-1.31892 13.65015,-4.74825 4.2207,-3.42931 6.46264,-8.24443 6.72643,-14.4436 l 32.24954,0.19885 c 0,5.01208 1.38509,9.2334 4.15493,12.66273 2.76983,3.42933 6.13361,5.47413 10.09053,6.13361 3.9569,0.79139 7.84717,0.79139 11.67219,0 3.9569,-0.79137 7.25531,-2.90314 9.89326,-6.33245 2.63793,-3.56123 3.89053,-7.8473 3.75863,-12.8594 -1.05518,-33.63374 -5.60617,-62.12494 -13.65189,-85.47071 -4.35261,-12.53023 -10.35406,-22.22303 -18.00409,-29.08168 -7.51813,-6.85864 -16.22264,-10.09104 -26.11492,-9.69535 z m 230.29275,0.39551 c -5.53967,-0.1319 -10.22142,1.71424 -14.04643,5.53926 -3.69312,3.69312 -5.67181,8.37652 -5.93561,14.0481 -1.18707,32.84236 -1.1217,66.74028 0.19728,101.69299 0.26378,5.53969 2.24248,10.2209 5.9356,14.04591 3.82502,3.82502 8.44139,5.73811 13.84916,5.73811 3.95692,-0.1319 12.92641,-0.19666 26.9075,-0.19666 13.98108,0 23.01596,-0.067 27.10476,-0.19884 4.8802,0 8.96833,-1.31931 12.26576,-3.95724 3.42931,-2.76985 5.54051,-6.067 6.33189,-9.89201 0.92328,-3.95692 0.98866,-7.84786 0.19727,-11.67288 -0.79138,-3.95692 -2.90083,-7.25406 -6.33014,-9.89201 -3.42933,-2.76984 -7.71708,-4.15608 -12.86106,-4.15608 -2.50605,0.13189 -8.17714,0.19884 -17.01424,0.19884 -8.70521,0 -14.31092,0.067 -16.81697,0.19885 v -12.66274 h 6.72644 c 3.69312,-0.13189 6.00217,-0.19884 6.92545,-0.19884 6.19917,0 10.94628,-2.0448 14.24371,-6.13362 3.56122,-4.0888 5.34204,-8.63832 5.34204,-13.6504 0.1319,-5.27588 -1.64892,-9.89233 -5.34204,-13.84925 -3.56122,-3.95692 -8.30833,-5.93477 -14.24371,-5.93477 -0.92328,0 -3.23233,0.0648 -6.92545,0.19666 h -6.92371 v -9.69316 h 33.23764 c 5.0121,-0.1319 9.16735,-1.58291 12.46477,-4.35275 3.42933,-2.76983 5.47339,-6.06699 6.13288,-9.89201 0.79138,-3.9569 0.79138,-7.84786 0,-11.67287 -0.79138,-3.95692 -2.90258,-7.25407 -6.33189,-9.89201 -3.42933,-2.63795 -7.64995,-3.89248 -12.66205,-3.76058 z m -522.51131,41.54775 c 5.93536,8.17761 10.35386,22.55382 13.2556,43.12977 l -25.72037,-0.19666 c 2.76983,-19.78456 6.92508,-34.09601 12.46477,-42.93311 z m 293.99925,0 c 5.93536,8.17761 10.35386,22.55382 13.2556,43.12977 l -25.72037,-0.19666 c 2.76983,-19.78456 6.92508,-34.09601 12.46477,-42.93311 z"
         transform="scale(1.1187781,0.89383228)" /></g></g></svg>
