<svg version="1.1" xmlns="http://www.w3.org/2000/svg" xmlns:xlink="http://www.w3.org/1999/xlink" width="135.97844" height="311.55615" viewBox="0,0,135.97844,311.55615"><defs><linearGradient x1="265.77668" y1="80.53656" x2="265.77668" y2="90.5837" gradientUnits="userSpaceOnUse" id="color-1"><stop offset="0" stop-color="#331100"/><stop offset="1" stop-color="#202020"/></linearGradient><linearGradient x1="248.62202" y1="80.53656" x2="248.62202" y2="90.5837" gradientUnits="userSpaceOnUse" id="color-2"><stop offset="0" stop-color="#331100"/><stop offset="1" stop-color="#202020"/></linearGradient><radialGradient cx="244.73107" cy="95.6944" r="13" gradientUnits="userSpaceOnUse" id="color-3"><stop offset="0" stop-color="#ff0037"/><stop offset="1" stop-color="#ff0037" stop-opacity="0"/></radialGradient><radialGradient cx="271.72441" cy="91.91401" r="6.41666" gradientUnits="userSpaceOnUse" id="color-4"><stop offset="0" stop-color="#ff1919"/><stop offset="1" stop-color="#ff1919" stop-opacity="0"/></radialGradient></defs><g transform="translate(-172.01077,-24.22192)"><g data-paper-data="{&quot;isPaintingLayer&quot;:true}" fill-rule="nonzero" stroke-linejoin="miter" stroke-miterlimit="10" stroke-dasharray="" stroke-dashoffset="0" style="mix-blend-mode: normal"><g stroke-width="1.5" stroke-linecap="butt"><path d="M231.35227,174.82787c0.82865,9.90468 -7.815,18.71334 -19.30614,19.67471c-4.59138,0.38413 -16.93476,-0.14548 -23.85765,-7.0755c-10.40346,-10.41416 -15.10916,-28.8325 -15.10916,-28.8325c0,0 9.84011,3.32335 19.74616,3.38585c6.04614,0.03815 11.86453,-2.98146 16.21986,-3.34584c11.49114,-0.96137 21.47829,6.2886 22.30694,16.19327z" fill="#a25711" stroke="#a33700"/><path d="M212.05912,194.65785c-4.59138,0.38413 -16.93476,-0.14548 -23.85765,-7.0755c-7.65167,-7.65953 -12.22114,-19.64893 -14.10312,-25.4556c1.34573,1.37654 2.6382,2.55296 3.66065,3.36006c5.68043,4.48398 12.12206,9.21412 20.44997,8.51739c5.00295,-0.41856 11.0454,-4.12407 15.88937,-1.6812c9.69625,4.88992 7.13645,8.09659 12.86804,15.17363c-3.50413,3.92638 -8.80407,6.65063 -14.90726,7.16123z" fill="#a3805e" stroke="#9b5a57"/></g><g stroke-linecap="butt"><path d="M220.41211,158.95667c-1.41082,-4.47498 1.07318,-9.24639 5.54816,-10.65721c4.47498,-1.41082 9.24639,1.07318 10.65721,5.54816c1.41082,4.47498 -1.07318,9.24639 -5.54816,10.65721c-4.47498,1.41082 -9.24639,-1.07318 -10.65721,-5.54816z" fill="none" stroke="#a33700" stroke-width="1.5"/><g fill="#a25711"><path d="M220.55747,159.07028l-8.52547,-27.04184c0,0 5.52122,-1.74067 8.24193,-2.59842c2.66853,-0.8413 7.92882,-2.49971 7.92882,-2.49971l8.52546,27.04185z" stroke="#a33700" stroke-width="1.5"/><path d="M212.81396,132.25041c-1.31317,-4.16525 0.99888,-8.60635 5.16411,-9.91952c4.16525,-1.31317 8.60634,0.99888 9.91952,5.1641c1.31317,4.16525 -0.99887,8.60635 -5.1641,9.91953c-4.16525,1.31317 -8.60636,-0.99888 -9.91953,-5.1641z" stroke="none" stroke-width="0"/></g></g><g fill="#a25711" stroke="#a33700" stroke-linecap="butt"><path d="M239.86423,181.37238c1.46788,-3.51105 5.50406,-5.16737 9.0151,-3.69948c3.51105,1.46788 6.26379,8.11716 6.48276,12.06493c0.21895,3.94775 0.14162,5.41954 0.14162,5.41954c0,0 0.05484,2.75417 -1.26121,4.46935c-1.75145,2.28261 -4.49033,2.43673 -4.76394,0.32919c-0.27362,-2.10754 0.34802,-2.11241 0.82916,-4.2006c0.48112,-2.08818 -1.56336,-3.26093 -1.56336,-3.26093c0,0 -3.56561,-1.43172 -5.18063,-2.10691c-3.51105,-1.46788 -5.16735,-5.50404 -3.69948,-9.01508z" stroke-width="1.5"/><path d="M252.55014,190.98046c2.66267,10.26399 -20.46943,13.99399 -23.1321,3.73001c-2.66267,-10.26399 6.74485,-20.44959 6.74485,-20.44959c0,0 6.02573,2.83432 10.86644,7.73283c2.46485,2.49429 4.62244,5.52376 5.52081,8.98677z" stroke-width="1.5"/><path d="M249.08954,180.02037c1.76495,2.21411 2.07344,5.27035 0.68904,6.8263c-1.38441,1.55596 -3.93747,1.02242 -5.70242,-1.1917c-1.76495,-2.21411 -2.07343,-5.27034 -0.68902,-6.82629c1.38441,-1.55596 3.93746,-1.02243 5.70241,1.1917z" stroke-width="0"/><g><path d="M247.18734,196.78611c0.09136,-2.10058 3.28455,-4.3173 5.2362,-2.38959c1.95166,1.92769 1.9155,4.66631 2.68727,6.78859c0.77178,2.12229 1.12178,4.01786 0.96635,6.2561c-0.09773,1.40751 -0.67565,2.62085 -1.84975,3.21327c-0.69298,0.34965 -0.89983,0.29575 -1.59173,-0.19874c-1.86421,-1.33232 -1.89124,-3.25585 -3.07607,-6.31321c-1.18484,-3.05735 -2.46363,-5.25585 -2.37227,-7.35644z" stroke-width="1.5"/><path d="M252.61986,193.90367c0.6174,1.9026 -0.42446,3.94547 -2.32707,4.56289c-1.9026,0.6174 -3.94548,-0.42447 -4.56288,-2.32706c-0.6174,-1.9026 0.42447,-3.94548 2.32708,-4.56288c1.9026,-0.6174 3.94547,0.42446 4.56288,2.32706z" stroke-width="0"/></g><g><path d="M242.37656,199.375c-0.01811,-1.15878 0.64077,-2.3054 1.56336,-2.96198c1.06998,-0.76148 2.49469,-0.86387 3.62934,0.43831c2.11301,2.42498 2.2487,5.69308 3.16997,8.27611c0.9213,2.58302 1.39789,4.86871 1.38031,7.53176c-0.01106,1.67466 -0.52431,3.0872 -1.68512,3.72068c-0.68512,0.37389 -0.89959,0.29652 -1.63679,-0.3376c-1.98628,-1.70849 -2.13505,-4.00723 -3.53677,-7.73292c-1.40172,-3.72568 -2.84517,-6.43168 -2.8843,-8.93435z" stroke-width="1.5"/><path d="M247.67361,196.07503c0.6174,1.9026 -0.42446,3.94545 -2.32707,4.56287c-1.9026,0.6174 -3.94547,-0.42445 -4.56288,-2.32706c-0.6174,-1.9026 0.42446,-3.94547 2.32706,-4.56288c1.9026,-0.6174 3.94547,0.42446 4.56287,2.32707z" stroke-width="0"/></g><g><path d="M231.10231,197.59722c0.00463,-1.81035 2.21925,-3.48999 3.66742,-1.67694c1.4482,1.81304 1.50134,4.17945 2.11323,6.07291c0.61189,1.89347 0.91628,3.55934 0.86989,5.48401c-0.02915,1.21032 -0.40654,2.2169 -1.22727,2.64189c-0.48439,0.25083 -0.63356,0.1888 -1.14152,-0.29054c-1.36863,-1.29148 -1.44336,-2.9575 -2.37697,-5.69065c-0.9336,-2.73315 -1.90945,-4.73033 -1.90482,-6.54068z" stroke-width="1.5"/><path d="M235.63354,195.25222c0.4954,1.69192 -0.93912,3.62488 -2.27894,4.01719c-1.33982,0.39229 -2.82756,-0.66122 -3.32296,-2.35314c-0.4954,-1.69192 0.18915,-3.38153 1.52895,-3.77382c1.33982,-0.39229 3.57755,0.41786 4.07294,2.10978z" stroke-width="0"/></g><g><path d="M236.60764,199.33486c0.00041,-2.07107 2.7332,-4.13837 4.52881,-2.16003c1.79561,1.97832 1.86828,4.68163 2.63029,6.80709c0.762,2.12547 1.1432,4.0109 1.09152,6.21546c-0.03248,1.38633 -0.49606,2.56261 -1.50938,3.10284c-0.59806,0.31886 -0.78264,0.25773 -1.41201,-0.25705c-1.69572,-1.38699 -1.79302,-3.28773 -2.95519,-6.35245c-1.16216,-3.06472 -2.37442,-5.28482 -2.37402,-7.35587z" stroke-width="1.5"/><path d="M241.28922,196.69612c0.6174,1.9026 -0.22385,3.88038 -1.879,4.41748c-1.65515,0.53709 -3.49739,-0.56988 -4.1148,-2.47247c-0.6174,-1.9026 0.22386,-3.88038 1.879,-4.41748c1.65515,-0.53709 3.49739,0.56985 4.11481,2.47247z" stroke-width="0"/></g></g><g fill="#a25711" stroke-linecap="butt"><g><path d="M229.0777,185.48638l-8.59149,-27.02095l16.15825,-5.13761l8.59149,27.02094z" stroke="#a33700" stroke-width="1.5"/><path d="M221.51281,158.84108c-1.32335,-4.16202 0.97786,-8.60878 5.13987,-9.93211c4.16202,-1.32335 8.60877,0.97786 9.93211,5.13987c1.32335,4.16202 -0.97786,8.60876 -5.13987,9.9321c-4.16202,1.32335 -8.60876,-0.97785 -9.9321,-5.13986z" stroke="none" stroke-width="0"/></g><path d="M229.40283,185.39413c-1.32335,-4.16202 0.97785,-8.60877 5.13987,-9.9321c4.16202,-1.32335 8.60876,0.97787 9.93211,5.13986c1.32335,4.16202 -0.97786,8.60877 -5.13987,9.93211c-4.16202,1.32335 -8.60876,-0.97785 -9.93211,-5.13986z" stroke="#a33700" stroke-width="0"/></g><path d="M244.67023,78.1533c0,0 -1.36342,-3.19268 -3.41359,-7.62108c-1.27457,-2.75312 -3.45337,-2.54507 -4.27585,-4.57287c-0.68088,-1.6787 -0.6368,-8.09614 -0.28246,-9.07106c1.47089,-4.04686 5.67184,-8.90229 7.47656,-8.95249c1.82009,-0.05062 8.55953,3.06076 10.26596,7.33626c0.64956,1.62748 0.9957,5.16553 0.04816,7.63021c-0.81245,2.11329 -0.55381,2.09781 -1.26958,4.33119c-1.32422,4.13188 0.33231,7.99699 0.33231,7.99699" data-paper-data="{&quot;index&quot;:null}" fill="#a25711" stroke="#a33700" stroke-width="1.5" stroke-linecap="round"/><g><g><path d="M269.12448,84.71579c0,10.49341 -8.63096,19 -19.27778,19c-10.64682,0 -19.27778,-8.50659 -19.27778,-19c0,-10.49341 8.63096,-19 19.27778,-19c10.64682,0 19.27778,8.50659 19.27778,19z" fill="#a25711" stroke="#a33700" stroke-width="1.5" stroke-linecap="butt"/><g data-paper-data="{&quot;index&quot;:null}"><path d="M270.0642,78.63965c0.83086,-0.92279 1.64321,-0.85542 1.81441,0.15049c0.17122,1.0059 -0.36354,2.56942 -1.1944,3.49222c-0.83086,0.92279 -1.6432,0.85542 -1.81441,-0.15049c-0.17121,-1.0059 0.36354,-2.56942 1.19439,-3.49222z" fill="#000000" stroke="none" stroke-width="0" stroke-linecap="butt"/><g fill="#ffffff" stroke-linecap="butt"><path d="M263.33301,88.07799c-0.34889,-3.82129 0.82657,-7.78789 2.62546,-8.85964c1.79889,-1.07175 3.54002,1.1572 3.88892,4.97849c0.34889,3.82129 -1.12244,4.54731 -2.92133,5.61907c-1.79889,1.07175 -3.24415,2.08338 -3.59305,-1.73791z" stroke="#000000" stroke-width="1.5"/><path d="M269.50761,88.63426c0,0 -1.23117,1.57158 -1.97885,2.00518c-0.9056,0.52518 -3.07229,0.92415 -3.07229,0.92415c0,0 -0.44709,-0.98116 -0.5935,-1.61031c-0.13585,-0.58378 -0.25567,-2.03871 -0.25567,-2.03871l5.9887,-3.51346c0,0 0.14796,1.55809 0.13233,2.30709c-0.01351,0.6471 -0.22071,1.92607 -0.22071,1.92607z" stroke="none" stroke-width="0"/></g><path d="M263.19014,79.52513l6.19701,-1.75116" fill="none" stroke="#000000" stroke-width="1.5" stroke-linecap="round"/></g></g><path d="M256.15233,62.63816c-0.44543,-0.09165 -1.2094,-0.40601 -1.2094,-1.48433c0,-1.52204 1.52204,-1.52204 1.52204,-1.52204l0.89138,0.19153c0.66768,0.38661 1.29664,0.85863 1.85833,1.39694c4.87505,-4.65971 13.10567,-4.52551 16.87167,-10.9001c0.65197,-1.95588 1.28398,-3.77112 1.82069,-5.57269c-0.3906,-0.20188 -0.61937,-0.52868 -0.61937,-0.52868c-1.08047,-1.5504 -2.36638,-3.37757 -3.16698,-5.07983c-1.01048,-2.14851 0.23702,-3.65939 -1.82649,-5.07744l-1.22845,-1.20682c0,0 -1.07624,-1.07624 0,-2.15249c1.07624,-1.07625 2.15248,0 2.15248,0l0.90241,0.92405c2.64179,2.08644 1.46294,3.84431 2.73964,6.18566c0.59629,1.09353 1.27321,2.2055 1.97826,3.27627c0.37988,-1.86872 0.60924,-3.81151 0.60924,-5.96122v-0.1522c0,0 0,-1.52204 1.52204,-1.52204c1.52204,0 1.52204,1.52204 1.52204,1.52204v0.1522c0,6.15781 -1.74386,10.77699 -3.63994,16.46522c-0.70494,1.16356 -1.64193,2.36179 -2.71078,3.44506c2.21233,-0.06696 4.23441,-0.28661 6.60417,-0.9949l1.75734,-0.32193c0,0 1.49749,-0.27227 1.76976,1.22522c0.27227,1.49749 -1.22522,1.76977 -1.22522,1.76977l-1.59115,0.28689c-3.58883,1.08132 -6.52886,1.10414 -10.24863,1.1075c0,0 -0.39283,-0.00001 -0.77935,-0.19957c-0.12336,0.06719 -0.24698,0.13165 -0.37077,0.19325c-5.60955,2.79133 -13.19343,3.38607 -13.15707,11.57383c0,0 0,1.52204 -1.52204,1.52204c-1.52204,0 -1.52204,-1.52204 -1.52204,-1.52204c0.00531,-1.42968 -0.09099,-2.24629 0.38251,-3.6776c0.2959,-0.89442 0.66075,-1.68988 1.08323,-2.40277c-0.33899,-0.37379 -0.73834,-0.69932 -1.16957,-0.95873z" fill="#822b00" stroke="#681800" stroke-width="1.5" stroke-linecap="butt"/></g><g fill="#a25711" stroke="#a33700"><path d="M261.13267,186.41395c1.76279,-3.57786 6.09219,-5.04924 9.67005,-3.28644c3.57784,1.76279 6.02707,8.89675 6.00059,13.04062c-0.02648,4.14388 -0.20264,5.67847 -0.20264,5.67847c0,0 -0.12091,2.88463 -1.60864,4.5937c-1.97992,2.27447 -4.85502,2.25836 -5.00483,0.03598c-0.14979,-2.22238 0.50082,-2.18723 1.13928,-4.34052c0.63846,-2.15328 -1.42434,-3.51243 -1.42434,-3.51243c0,0 -3.63728,-1.72851 -5.28303,-2.53936c-3.57786,-1.7628 -5.04925,-6.09221 -3.28645,-9.67006z" stroke-width="1.5" stroke-linecap="butt"/><path d="M269.8229,199.02789c-1.93717,10.94353 -25.61069,4.41329 -23.67352,-6.53023c1.93718,-10.94353 15.34432,-16.54989 15.34432,-16.54989c0,0 5.38831,6.36988 7.62106,14.04126c0.84917,2.91764 1.24192,6.02355 0.70816,9.03887z" stroke-width="1.5" stroke-linecap="butt"/><path d="M271.68686,187.47022c0.71684,2.87976 -0.32161,5.9272 -2.31947,6.80659c-1.99787,0.8794 -4.19857,-0.74223 -4.91543,-3.62199c-0.71684,-2.87976 0.32162,-5.92719 2.31947,-6.80659c1.99787,-0.8794 4.19857,0.74223 4.9154,3.622z" stroke-width="0" stroke-linecap="butt"/><g stroke-linecap="butt"><path d="M262.18037,202.22314c1.00291,-1.96224 5.01281,-2.6828 6.03249,0.0054c1.01967,2.68819 -0.20878,5.2826 -0.39849,7.64185c-0.18969,2.35925 -0.68256,4.31853 -1.80656,6.38403c-0.7068,1.29889 -1.78665,2.20337 -3.16396,2.2561c-0.81292,0.03113 -0.98657,-0.1104 -1.43044,-0.88337c-1.19591,-2.0826 -0.38303,-3.92773 -0.17935,-7.35829c0.20369,-3.43055 -0.05661,-6.0835 0.94629,-8.04572z" stroke-width="1.5"/><path d="M268.61193,201.98889c-0.24106,2.08255 -2.12472,3.57538 -4.2073,3.33433c-2.08255,-0.24106 -3.57538,-2.12472 -3.33432,-4.20729c0.24106,-2.08255 2.12473,-3.57538 4.20728,-3.33432c2.08255,0.24106 3.57538,2.12473 3.33433,4.2073z" stroke-width="0"/></g><g stroke-linecap="butt"><path d="M256.46649,202.59318c1.05386,-2.4024 5.09282,-3.37385 6.04948,-0.14135c0.95667,3.2325 -0.33888,6.40649 -0.58698,9.27005c-0.24807,2.86355 -0.79038,5.24985 -1.96817,7.78036c-0.74065,1.59131 -1.84573,2.71382 -3.22828,2.81151c-0.81599,0.05765 -0.98666,-0.10962 -1.41282,-1.03541c-1.14825,-2.49439 -0.28782,-4.75016 0.00054,-8.91225c0.28836,-4.16209 0.09237,-7.37049 1.14622,-9.77288z" stroke-width="1.5"/><path d="M262.95098,201.90191c-0.24106,2.08255 -2.12474,3.57538 -4.2073,3.33433c-2.08255,-0.24106 -3.57538,-2.12474 -3.33433,-4.2073c0.24106,-2.08255 2.12472,-3.57538 4.20729,-3.33432c2.08255,0.24106 3.57538,2.12473 3.33434,4.2073z" stroke-width="0"/></g><g stroke-linecap="butt"><path d="M246.49608,195.98336c0.7937,-1.72343 3.63679,-2.35876 4.22658,0.00065c0.58981,2.35942 -0.39127,4.63803 -0.63361,6.70945c-0.24231,2.07146 -0.67852,3.79193 -1.56186,5.60611c-0.55547,1.14085 -1.35403,1.93569 -2.32155,1.98292c-0.57104,0.02788 -0.68616,-0.09628 -0.96133,-0.7746c-0.74136,-1.82764 -0.08624,-3.44811 0.21556,-6.4601c0.3018,-3.012 0.24247,-5.34099 1.03616,-7.06442z" stroke-width="1.5"/><path d="M251.81052,196.07358c-0.26548,1.82856 -2.47547,3.04546 -3.92349,2.83521c-1.44802,-0.21025 -2.40666,-1.863 -2.14117,-3.69156c0.26548,-1.82856 1.65456,-3.14046 3.10257,-2.93022c1.44802,0.21025 3.22758,1.95801 2.96211,3.78657z" stroke-width="0"/></g><g stroke-linecap="butt"><path d="M250.98564,200.03976c0.90334,-1.97377 4.40929,-2.75266 5.25815,-0.08423c0.84889,2.6684 -0.26048,5.27662 -0.46087,7.63464c-0.2004,2.35801 -0.65914,4.32123 -1.66955,6.39988c-0.63539,1.30715 -1.59004,2.22614 -2.7914,2.29923c-0.70905,0.04315 -0.85832,-0.09557 -1.23373,-0.86062c-1.01148,-2.06126 -0.27551,-3.91527 -0.047,-7.34295c0.22851,-3.42768 0.04106,-6.07218 0.94438,-8.04594z" stroke-width="1.5"/><path d="M256.57146,199.91558c-0.24106,2.08255 -1.90515,3.60081 -3.71684,3.39109c-1.8117,-0.20971 -3.08493,-2.06797 -2.84387,-4.15053c0.24106,-2.08255 1.90514,-3.60081 3.71684,-3.3911c1.8117,0.20971 3.08494,2.06797 2.84388,4.15053z" stroke-width="0"/></g><path d="M265.39209,201.52523c0,0 -2.04334,2.11819 -8.03389,1.17423c-5.87289,-0.17876 -8.38436,-3.07471 -8.38436,-3.07471" stroke-width="1.5" stroke-linecap="round"/></g><path d="M266.32898,136.30155c-4.41749,-0.31087 -7.74659,-4.14396 -7.43572,-8.56147c0.31087,-4.4175 4.14397,-7.74658 8.56148,-7.43572c4.41749,0.31087 7.74659,4.14395 7.43572,8.56146c-0.31087,4.4175 -4.14397,7.74658 -8.56147,7.43571z" data-paper-data="{&quot;index&quot;:null}" fill="none" stroke="#a33700" stroke-width="1.5" stroke-linecap="butt"/><g data-paper-data="{&quot;index&quot;:null}" stroke-linecap="butt"><path d="M263.12455,165.56315c-4.73103,-0.52793 -8.13831,-4.79119 -7.61037,-9.5222c0.52793,-4.73103 4.79118,-8.13831 9.5222,-7.61037c4.73103,0.52793 8.13831,4.79119 7.61038,9.5222c-0.52793,4.73103 -4.79119,8.13831 -9.5222,7.61037z" fill="none" stroke="#a33700" stroke-width="1.5"/><g fill="#a25711"><path d="M255.42834,156.1866l3.19026,-28.58908c0,0 5.56125,0.62058 8.38247,0.93539c2.87637,0.32097 8.71351,0.97233 8.71351,0.97233l-3.19028,28.58909z" stroke="#a33700" stroke-width="1.5"/><path d="M266.1166,136.96298c-4.40355,-0.49139 -7.57497,-4.45951 -7.08357,-8.86308c0.4914,-4.40354 4.45951,-7.57497 8.86308,-7.08357c4.40354,0.49139 7.57497,4.45951 7.08358,8.86309c-0.49139,4.40354 -4.45953,7.57497 -8.86308,7.08357z" stroke="none" stroke-width="0"/></g></g><g data-paper-data="{&quot;index&quot;:null}" fill="#a25711" stroke-linecap="butt"><g><path d="M251.32637,183.80888l4.04499,-28.48072l17.03119,2.41888l-4.045,28.48073z" stroke="#a33700" stroke-width="1.5"/><path d="M262.36752,165.11073c-4.38687,-0.62304 -7.43805,-4.68436 -6.81499,-9.07123c0.62304,-4.38688 4.68437,-7.43802 9.07125,-6.81498c4.38687,0.62304 7.43803,4.68436 6.81498,9.07124c-0.62305,4.38686 -4.68436,7.43803 -9.07124,6.81498z" stroke="none" stroke-width="0"/></g><path d="M268.01679,186.19024c-0.62307,4.38686 -4.68437,7.43802 -9.07125,6.81497c-4.38686,-0.62307 -7.43803,-4.68438 -6.815,-9.07124c0.62306,-4.38685 4.68438,-7.43803 9.07125,-6.81498c4.38686,0.62303 7.43805,4.68437 6.81499,9.07124z" stroke="#a33700" stroke-width="0"/></g><g stroke="#a33700" stroke-width="1.5" stroke-linecap="butt"><path d="M242.8931,219.72837c0,-15.67108 9.87212,-28.375 22.05,-28.375c12.17788,0 22.05,12.70392 22.05,28.375c0,15.67108 -9.87212,28.375 -22.05,28.375c-12.17788,0 -22.05,-12.70392 -22.05,-28.375z" fill="#a25711"/><path d="M253.27733,247.84513l-7.8003,-29.57113l8.40984,-45.34453c0,0 18.57389,-1.25072 31.37356,32.04089c8.65697,20.37355 -8.82061,49.86046 -8.82061,49.86046z" fill="#a25711"/><path d="M252.69205,250.92176c0,-7.46605 6.02416,-13.51849 13.45534,-13.51849c7.43118,0 13.45533,6.05244 13.45533,13.51849c0,7.46605 -6.02415,13.51847 -13.45533,13.51847c-7.43118,0 -13.45534,-6.05242 -13.45534,-13.51847z" fill="none"/></g><g stroke="#a33700" stroke-width="1.5" stroke-linecap="butt"><path d="M201.6497,249.68422c0,-8.49343 6.81393,-15.37873 15.21933,-15.37873c8.4054,0 15.21932,6.8853 15.21932,15.37873c0,8.49343 -6.81392,15.37871 -15.21932,15.37871c-8.4054,0 -15.21933,-6.88528 -15.21933,-15.37871z" fill="none"/><path d="M191.04311,217.15337c0,-15.67108 12.70392,-28.375 28.375,-28.375c15.67108,0 28.375,12.70392 28.375,28.375c0,15.67108 -12.70392,28.375 -28.375,28.375c-15.67108,0 -28.375,-12.70392 -28.375,-28.375z" fill="#a25711"/><path d="M203.02448,254.27526c0,0 -22.12643,-29.48691 -11.1668,-49.86046c16.20425,-33.29161 39.7186,-32.04089 39.7186,-32.04089l10.64677,45.34453l-9.87509,29.57113z" fill="#a25711"/></g><g data-paper-data="{&quot;index&quot;:null}" stroke-width="1.5" stroke-linecap="butt"><path d="M220.02678,316.78713c-8.78947,3.8621 -12.70383,10.50137 -12.70383,10.50137c0,0 -27.79718,5.17954 -27.2654,-2.95228c0.19891,-3.04176 6.67535,-5.78524 11.7544,-9.90438c8.49924,-6.89292 10.84672,-14.93973 10.84672,-14.93973c0,0 7.46992,-1.4416 10.98171,-1.28487c3.60974,0.16109 10.39099,2.23868 10.39099,2.23868c0,0 7.58797,-2.5626 8.65604,4.92654c0.44589,3.1265 -5.36711,8.20992 -12.6606,11.41467z" data-paper-data="{&quot;index&quot;:null}" fill="#a25711" stroke="#a33700"/><path d="M194.54222,322.96435c1.65558,-3.44256 5.5867,-4.98821 8.7804,-3.45231c3.1937,1.5359 4.44059,5.57174 2.78501,9.0143c-1.65558,3.44256 -10.80335,6.17821 -10.80335,6.17821c0,0 -2.41765,-8.29764 -0.76207,-11.7402z" fill="#554f49" stroke="#231f1c"/><path d="M180.69953,319.66468c3.07753,-2.26296 7.27424,-1.78296 9.37361,1.07209c2.09937,2.85505 1.30641,7.00402 -1.77112,9.26698c-3.07753,2.26296 -9.43921,4.71897 -9.43921,4.71897c0,0 -1.24082,-12.79508 1.83671,-15.05804z" fill="#554f49" stroke="#231f1c"/></g><g stroke-width="1.5" stroke-linecap="butt"><path d="M263.46985,316.44696c-6.48142,-2.59772 -12.00895,-7.14082 -12.08792,-10.23022c-0.18916,-7.40028 6.4436,-5.45198 6.4436,-5.45198c0,0 5.30287,-2.52903 8.2608,-2.95153c2.87766,-0.41105 9.25259,0.44994 9.25259,0.44994c0,0 3.08953,7.69473 11.0942,13.80972c4.7835,3.65425 10.52424,5.86098 11.12356,8.82019c1.60225,7.91114 -18.95373,3.24286 -18.95373,3.24286c0,0 -7.32223,-4.55842 -15.13308,-7.68897z" data-paper-data="{&quot;index&quot;:null}" fill="#a25711" stroke="#a33700"/><path d="M299.25856,318.75557c3.72363,0.75648 7.67334,11.61191 7.67334,11.61191c0,0 -6.8137,0.24526 -10.53733,-0.51122c-3.72363,-0.75648 -6.1011,-3.8547 -5.31023,-6.92007c0.79087,-3.06537 4.45059,-4.9371 8.17422,-4.18062z" fill="#554f49" stroke="#231f1c"/><path d="M291.70299,319.8625c2.88804,2.34139 3.96949,10.3712 3.96949,10.3712c0,0 -9.48122,1.05607 -12.36926,-1.28531c-2.88804,-2.34139 -3.34891,-6.27339 -1.02938,-8.7824c2.31953,-2.509 6.54111,-2.64488 9.42915,-0.30349z" fill="#554f49" stroke="#231f1c"/></g><path d="M212.65005,129.89818c0,-4.69212 3.80372,-8.49583 8.49583,-8.49583c4.69212,0 8.49583,3.80372 8.49583,8.49583c0,4.69212 -3.80372,8.49583 -8.49583,8.49583c-4.69212,0 -8.49583,-3.80372 -8.49583,-8.49583z" fill="none" stroke="#a33700" stroke-width="1.5" stroke-linecap="butt"/><g><path d="M257.15409,303.93587c0,0 0.69181,-6.18766 -1.45243,-14.91317c-2.30808,-9.39224 -7.46427,-21.47972 -7.46427,-24.76285c0,-6.64788 5.73215,-14.25588 5.73215,-14.25588h25.68857c0,0 -0.78705,9.59084 -0.89777,15.26957c-0.0998,5.11889 -0.56486,15.17027 -0.5806,23.88993c-0.01486,8.2272 0.41686,15.28767 0.41686,15.28767z" fill="#a25711" stroke="#a33700" stroke-width="1.5" stroke-linecap="butt"/><path d="M257.8583,303.78472c0,-5.18409 4.46917,-9.38664 9.98217,-9.38664c5.51301,0 9.98217,4.20254 9.98217,9.38664c0,5.18409 -4.46917,9.38663 -9.98217,9.38663c-5.51301,0 -9.98217,-4.20254 -9.98217,-9.38663z" fill="#a25711" stroke="#000000" stroke-width="0" stroke-linecap="butt"/><path d="M266.24768,263.01218c-7.77252,0 -14.07338,-5.92965 -14.07338,-13.24423c0,-7.31459 6.30086,-13.24422 14.07338,-13.24422c7.77252,0 14.07338,5.92964 14.07338,13.24422c0,7.31459 -6.30087,13.24423 -14.07338,13.24423z" fill="#a25711" stroke="none" stroke-width="0" stroke-linecap="butt"/><path d="M265.81408,273.2059c0,0 -2.7217,-4.68482 -2.75497,-7.13254c-0.02926,-2.15278 2.5658,-6.78289 2.5658,-6.78289" data-paper-data="{&quot;index&quot;:null}" fill="none" stroke="#a33700" stroke-width="1.5" stroke-linecap="round"/><path d="M275.00976,259.30636c0,0 2.59507,4.6301 2.56582,6.78288c-0.03328,2.44772 -2.75498,7.13253 -2.75498,7.13253" fill="none" stroke="#a33700" stroke-width="1.5" stroke-linecap="round"/></g><g data-paper-data="{&quot;index&quot;:null}"><path d="M202.87081,302.36804c0,0 0.48459,-6.5697 0.46791,-14.22503c-0.01767,-8.11355 -0.53967,-17.46627 -0.65169,-22.22935c-0.12427,-5.28399 -1.00769,-14.20817 -1.00769,-14.20817h28.83368c0,0 6.43396,7.07916 6.43396,13.26495c0,3.05492 -5.78747,14.3022 -8.37814,23.04159c-2.40676,8.11899 -1.63025,13.87655 -1.63025,13.87655z" fill="#a25711" stroke="#a33700" stroke-width="1.5" stroke-linecap="butt"/><path d="M215.30095,312.60711c-6.26555,0 -11.34478,-4.83384 -11.34478,-10.79667c0,-5.96284 5.07922,-10.79667 11.34478,-10.79667c6.26554,0 11.34478,4.83384 11.34478,10.79667c0,5.96284 -5.07922,10.79667 -11.34478,10.79667z" fill="#a25711" stroke="#000000" stroke-width="0" stroke-linecap="butt"/><path d="M217.03262,263.34755c-8.59467,0 -15.56202,-6.52484 -15.56202,-14.57363c0,-8.04879 6.96734,-14.57362 15.56202,-14.57362c8.59467,0 15.56203,6.52483 15.56203,14.57362c0,8.04879 -6.96736,14.57363 -15.56203,14.57363z" fill="#a25711" stroke="none" stroke-width="0" stroke-linecap="butt"/><g data-paper-data="{&quot;index&quot;:null}" fill="none" stroke="#a33700" stroke-width="1.5" stroke-linecap="round"><path d="M207.77801,272.49454c0,0 -2.91416,-4.35917 -2.94979,-6.63675c-0.03132,-2.00315 2.74726,-6.3114 2.74726,-6.3114"/><path d="M217.31751,259.65661c0,0 2.77858,4.30826 2.74724,6.31141c-0.03563,2.27758 -2.94979,6.63676 -2.94979,6.63676" data-paper-data="{&quot;index&quot;:null}"/></g></g><g><path d="M214.71643,127.20313l18.94788,-13.79793l20.62149,0.58695c0,0 13.88837,3.91076 15.02587,11.11574c1.1375,7.20498 -8.70336,23.18221 -7.52844,36.37308c1.27358,14.29858 12.98118,41.36351 12.98118,41.36351c0,0 -4.44317,9.39586 -14.84023,14.13929c-4.70776,2.14781 -2.20208,7.6184 -8.16391,7.50343c-6.56679,-0.12664 -4.56925,-0.19022 -10.49051,-0.33687c-4.40856,0.06856 -3.76136,-6.87042 -6.00201,-7.90451c-9.34627,-4.31341 -18.7735,-12.94412 -18.7735,-12.94412c0,0 9.0747,-25.88252 9.73004,-40.89169c0.45568,-10.43651 -11.50786,-35.20687 -11.50786,-35.20687z" fill="#a25711" stroke="#a33700" stroke-width="1.5" stroke-linecap="butt"/><path d="M231.66849,206.11292c0,5.52285 0.03177,11.125 -5.63426,11.125c-5.66603,0 -11.88426,-10.72715 -11.88426,-16.25c0,-5.52285 6.21823,-3.75 11.88426,-3.75c5.66603,0 5.63426,3.35215 5.63426,8.875z" fill="#a25711" stroke="none" stroke-width="0" stroke-linecap="butt"/><path d="M277.42774,200.72402c0,4.78647 -3.8558,11.16667 -8.76636,11.16667c-4.91056,0 -12.26636,-1.5052 -12.26636,-6.29167c0,-4.78647 3.9808,-8.66667 8.89136,-8.66667c4.91056,0 12.14136,-0.9948 12.14136,3.79167z" fill="#a25711" stroke="none" stroke-width="0" stroke-linecap="butt"/><path d="M228.89143,129.00313c1.52872,-13.07367 9.99335,-15.59794 9.99335,-15.59794l15.88234,0.58695c0,0 7.91472,8.08888 8.72051,14.71573c0.80579,6.62686 -3.85101,19.58221 -2.94611,32.77308c0.9809,14.29858 8.42954,24.32508 5.1979,39.56351c-3.23164,15.23843 -10.85144,14.27928 -18.3674,14.35585c-7.4429,0.07583 -12.99003,-4.71796 -15.51134,-13.89863c-2.52131,-9.18067 0.78919,-24.08252 1.29391,-39.09169c0.35096,-10.43651 -5.79188,-20.3332 -4.26316,-33.40687z" fill="#a3805e" stroke="#9b5a57" stroke-width="1.5" stroke-linecap="butt"/><g fill="#a3805e" stroke="#9b5a57" stroke-linecap="butt"><path d="M295.31138,145.46653c6.90816,9.7488 6.99648,20.11058 -7.39417,29.39131c-14.12121,9.10697 -24.57592,5.53462 -31.11972,-4.46241c-11.60491,-17.72893 -1.49966,-47.33338 -1.49966,-47.33338c0,0 0.60681,0.53092 11.07981,8.12896c6.71608,4.87244 22.95015,5.83145 28.93374,14.2755z" stroke-width="1.5"/><path d="M245.39753,128.68099c1.34767,-0.5851 6.6467,-6.17926 9.73092,-7.23206c3.37515,-1.1521 4.56285,2.42323 6.35713,6.60898c0.09211,0.21488 1.18446,-0.55798 0.7879,5.35208c-0.08457,1.26031 -6.17865,7.02648 -6.12899,7.15317c3.45189,8.80663 -3.24735,13.33329 -5.01354,11.77928c-1.92658,-1.69514 -4.31062,-3.23975 -5.81504,-7.07787c-3.4519,-8.80663 0.08165,-16.58355 0.08165,-16.58355z" data-paper-data="{&quot;index&quot;:null}" stroke-width="0"/></g><g fill="#a3805e" stroke="#9b5a57" stroke-linecap="butt"><path d="M268.06583,162.63811c-0.62151,11.6742 -7.25163,19.69674 -25.0973,18.13427c-17.51154,-1.53322 -23.80393,-10.60131 -22.72202,-22.24613c1.91868,-20.65117 29.38482,-37.31031 29.38482,-37.31031c0,0 0.15591,0.77519 3.85922,12.95046c2.37484,7.8077 15.11361,18.35996 14.57529,28.47171z" stroke-width="1.5"/><path d="M237.84957,119.55195c1.4875,0.36477 9.46685,-0.734 12.68591,0.32094c3.5227,1.15445 2.18727,4.62226 0.95612,8.92625c-0.0632,0.22095 1.33564,0.28696 -2.81377,4.59257c-0.88486,0.91816 -9.62973,1.66855 -9.67082,1.79601c-2.85622,8.86001 -11.29728,8.29125 -11.74544,6.02828c-0.48885,-2.46847 -1.45152,-5.09774 -0.20672,-8.95914c2.85622,-8.86002 10.79472,-12.70489 10.79472,-12.70489z" data-paper-data="{&quot;index&quot;:null}" stroke-width="0"/></g><g fill="#000000" stroke="#632222" stroke-width="1.5" stroke-linecap="butt" font-family="&quot;Helvetica Neue&quot;, Helvetica, Arial, sans-serif" font-weight="400" font-size="16" text-anchor="start"/><g fill="#000000" stroke="#632222" stroke-width="1.5" stroke-linecap="butt" font-family="&quot;Helvetica Neue&quot;, Helvetica, Arial, sans-serif" font-weight="400" font-size="16" text-anchor="start"/><path d="M247.56664,201.98791l-1.16667,-8.91667" fill="none" stroke="#9b5a57" stroke-width="1.5" stroke-linecap="round"/><path d="M247.31664,196.90458l3.33333,-3.58333" fill="none" stroke="#9b5a57" stroke-width="1.5" stroke-linecap="round"/></g><path d="M268.6554,74.97013c0,0 -0.96922,-0.48829 -1.28157,-1.13419c-0.32725,-0.67671 -0.63928,-2.83794 -0.63928,-2.83794" data-paper-data="{&quot;index&quot;:null}" fill="none" stroke="#000000" stroke-width="1.5" stroke-linecap="round"/><g data-paper-data="{&quot;index&quot;:null}" stroke="none" stroke-width="0" stroke-linecap="butt"><path d="M265.77668,80.53656c1.14646,0 2.07584,2.24913 2.07584,5.02357c0,2.77444 -0.92939,5.02357 -2.07584,5.02357c-1.14645,0 -2.07583,-2.24913 -2.07583,-5.02357c0,-2.77444 0.92938,-5.02357 2.07583,-5.02357z" fill="url(#color-1)"/><path d="M265.81734,89.24019c-0.75776,0 -1.37203,-1.56917 -1.37203,-3.50482c0,-1.93565 0.61428,-3.50481 1.37203,-3.50481c0.75776,0 1.37204,1.56916 1.37204,3.50481c0,1.93566 -0.61429,3.50482 -1.37204,3.50482z" fill="#000000"/><path d="M264.91406,89.24018c-0.20838,0 -0.37731,-0.43151 -0.37731,-0.96382c0,-0.53231 0.16893,-0.96382 0.37731,-0.96382c0.20838,0 0.37731,0.43151 0.37731,0.96382c0,0.5323 -0.16893,0.96382 -0.37731,0.96382z" fill="#ffffff"/><path d="M266.59483,85.03442c-0.36625,0 -0.66315,-0.75844 -0.66315,-1.694c0,-0.93557 0.29691,-1.694 0.66315,-1.694c0.36624,0 0.66315,0.75844 0.66315,1.694c0,0.93557 -0.2969,1.694 -0.66315,1.694z" fill="#ffffff"/></g><g stroke-linecap="butt"><path d="M232.92235,113.77516c0,0 0.63656,-6.75878 0.11137,-11.09448c-0.52518,-4.3357 -3.23348,-13.43315 -3.23348,-14.68034c0,-0.3623 23.65429,4.70547 23.65429,4.70547c0,0 -2.19204,4.0801 -1.199,13.26825c0.33182,3.0702 1.89997,8.13018 1.89997,8.13018z" fill="#a25711" stroke="#a33700" stroke-width="1.5"/><path d="M234.31237,112.54233c2.04962,-3.32439 4.20116,-5.71723 4.80559,-5.34457c0.60443,0.37266 -0.56712,3.3697 -2.61674,6.69409c-2.04962,3.32439 -6.20116,4.71723 -6.80559,4.34457c-0.60443,-0.37266 2.56713,-2.3697 4.61675,-5.69409z" fill="#a25711" stroke="none" stroke-width="0"/><path d="M253.59735,92.70581c0,0 -2.19204,4.0801 -1.199,13.26825c0.33182,3.0702 1.89997,8.13018 1.89997,8.13018l-16.95703,-0.26281c0.01115,-7.74846 0.32525,-17.55749 -3.57609,-24.49307c-0.17622,-0.31328 -0.38152,-0.59768 -0.61122,-0.85784c6.46583,1.22069 20.44338,4.21529 20.44338,4.21529z" fill="#a3805e" stroke="#9b5a57" stroke-width="1.5"/><path d="M237.11749,118.56227c0,-5.04946 4.0934,-9.14286 9.14286,-9.14286c5.04946,0 9.14286,4.0934 9.14286,9.14286c0,5.04946 -4.0934,9.14286 -9.14286,9.14286c-5.04946,0 -9.14286,-4.0934 -9.14286,-9.14286z" fill="#a3805e" stroke="none" stroke-width="0"/></g><g><g><path d="M229.27193,84.66801c0,-9.99403 7.25186,-18.52075 17.24589,-18.52075c9.99403,0 12.40797,5.47832 15.30957,15.04187c1.06238,3.50154 17.52543,4.90977 16.1491,13.03592c-0.5507,3.25144 -2.41193,6.68894 -7.33374,7.94174c-6.9769,1.7759 -14.4032,2.67665 -23.27502,0.59701c-9.1007,-2.13329 -18.0958,-8.10176 -18.0958,-18.09579z" fill="#a25711" stroke="#a33700" stroke-width="1.5" stroke-linecap="butt"/><path d="M229.38304,84.66801c0,-9.99403 50.08089,1.43089 48.70456,9.55704c-0.5507,3.25144 -2.41193,6.68894 -7.33374,7.94174c-6.9769,1.7759 -14.4032,2.67665 -23.27502,0.59701c-9.1007,-2.13329 -18.0958,-8.10176 -18.0958,-18.09579z" fill="#a3805e" stroke="#9b5a57" stroke-width="1.5" stroke-linecap="butt"/><path d="M242.93667,93.08894c2.48118,3.71582 3.16746,8.39172 1.53284,10.44391c-1.63462,2.05219 -4.97114,0.70353 -7.45232,-3.01229c-2.48118,-3.71582 -3.16745,-8.39172 -1.53283,-10.44391c1.63462,-2.05219 4.97114,-0.70353 7.45231,3.01229z" fill="#a3805e" stroke="none" stroke-width="0" stroke-linecap="butt"/><path d="M276.80668,97.24286c0,0 -0.95035,1.48171 -2.37349,1.87224c-0.8041,0.22067 -1.75913,-0.58304 -2.77897,-0.53091c-1.59516,0.08154 -4.66987,1.70907 -6.95309,1.38559c-2.32319,-0.32914 -3.84136,-2.6101 -3.84136,-2.6101" fill="none" stroke="#6e403e" stroke-width="1.5" stroke-linecap="round"/><path d="M271.49105,98.11905l0.46731,-4.61467" fill="none" stroke="#6e403e" stroke-width="1.5" stroke-linecap="round"/><g fill="#ff1919" stroke-linecap="butt"><g stroke="#ad0043" stroke-width="3"><path d="M273.12147,92.94083c-0.79307,0.36729 -2.37465,0.10283 -3.53258,-0.59066c-1.15793,-0.6935 -1.45371,-1.55343 -0.66064,-1.92072c0.79307,-0.36729 2.37465,-0.10284 3.53258,0.59066c1.15792,0.6935 1.45371,1.55344 0.66064,1.92072z"/><path d="M271.53707,91.00499c1.02522,-0.7492 2.55086,-1.09293 3.40762,-0.76774c0.85676,0.32519 0.72021,1.19616 -0.30501,1.94536c-1.02522,0.7492 -2.55085,1.09292 -3.40762,0.76773c-0.85676,-0.32519 -0.72021,-1.19616 0.305,-1.94536z" data-paper-data="{&quot;index&quot;:null}"/></g><g stroke="none" stroke-width="0"><path d="M273.12147,92.94083c-0.79307,0.36729 -2.37465,0.10283 -3.53258,-0.59066c-1.15793,-0.6935 -1.45371,-1.55343 -0.66064,-1.92072c0.79307,-0.36729 2.37465,-0.10284 3.53258,0.59066c1.15792,0.6935 1.45371,1.55344 0.66064,1.92072z"/><path d="M271.53707,91.00499c1.02522,-0.7492 2.55086,-1.09293 3.40762,-0.76774c0.85676,0.32519 0.72021,1.19616 -0.30501,1.94536c-1.02522,0.7492 -2.55085,1.09292 -3.40762,0.76773c-0.85676,-0.32519 -0.72021,-1.19616 0.305,-1.94536z" data-paper-data="{&quot;index&quot;:null}"/></g></g><g><path d="M242.95758,81.79853c-0.43735,1.00591 -2.51246,1.07328 -4.63486,0.15049c-2.1224,-0.9228 -3.48841,-2.48632 -3.05105,-3.49222c0.43735,-1.00591 2.51246,-1.07328 4.63486,-0.15049c2.1224,0.9228 3.48841,2.48632 3.05105,3.49222z" fill="#000000" stroke="none" stroke-width="0" stroke-linecap="butt"/><g fill="#ffffff" stroke-linecap="butt"><path d="M257.10111,87.74466c-0.89125,3.82129 -4.58311,2.80966 -9.17834,1.73791c-4.59523,-1.07176 -8.3537,-1.79778 -7.46246,-5.61907c0.89124,-3.82129 5.3389,-6.05024 9.93413,-4.97849c4.59523,1.07175 7.5979,5.03835 6.70666,8.85964z" stroke="#000000" stroke-width="1.5"/><path d="M241.32826,88.30093c0,0 -0.52929,-1.27897 -0.5638,-1.92607c-0.03994,-0.749 0.33804,-2.30709 0.33804,-2.30709l15.29795,3.51346c0,0 -0.30607,1.45493 -0.65311,2.03871c-0.37401,0.62915 -1.51609,1.61031 -1.51609,1.61031c0,0 -5.53476,-0.39897 -7.84807,-0.92415c-1.90992,-0.4336 -5.05492,-2.00518 -5.05492,-2.00518z" stroke="none" stroke-width="0"/></g><path d="M241.636,77.44064l15.83008,2.86227" fill="none" stroke="#000000" stroke-width="1.5" stroke-linecap="round"/></g><path d="M255.91602,74.14529c-4.18245,-2.26376 -6.95734,-5.23638 -6.19788,-6.63952c0.75945,-1.40314 4.76566,-0.70548 8.94811,1.55829c4.18245,2.26376 6.95734,5.23638 6.19788,6.63952c-0.75945,1.40314 -4.76566,0.70548 -8.94811,-1.55829z" fill="#a25711" stroke="none" stroke-width="0" stroke-linecap="butt"/></g><path d="M234.72848,57.66901c-0.31845,-1.48835 1.16991,-1.80681 1.16991,-1.80681l1.62351,0.00111c1.36665,0.70731 1.99376,0.93451 3.35841,0.81581c0.6447,-0.63212 1.31008,-1.23313 1.93958,-1.81695c3.17198,-2.94174 6.28845,-5.91157 8.28844,-9.8208c0.52101,-1.51628 0.86446,-2.99835 1.04366,-4.45724c-2.36735,-2.10689 -5.97862,-3.71082 -7.93826,-6.08774c-1.63691,-1.98548 -0.35071,-5.79239 -2.56756,-6.56552l-0.02885,0.00256c0,0 -1.44009,-0.49269 -0.94742,-1.93278c0.49269,-1.44009 1.93277,-0.94742 1.93277,-0.94742l0.37848,0.1419c0.6866,0.38422 1.56684,0.53944 2.05978,1.15266c1.49733,1.86267 -0.00282,4.47698 1.52518,6.21659c1.45048,1.65133 3.69475,2.906 5.6908,4.27752c-0.20748,-3.11604 -1.14299,-6.16721 -2.66776,-9.26855l-0.33496,-0.68335c0,0 -0.66992,-1.36668 0.69677,-2.0366c1.36668,-0.66992 2.0366,0.69677 2.0366,0.69677l0.33496,0.68335c3.21981,6.58661 3.97755,12.98996 1.58889,19.99491c-0.4932,0.96978 -1.04313,1.88841 -1.63916,2.76673c0.92244,-0.38694 1.79066,-0.84619 2.32645,-1.4059c1.70294,-1.77895 2.43529,-3.68006 4.67889,-5.09386l-0.56144,0.00458c0,0 0.20069,-1.50876 1.70943,-1.30807c1.50874,0.20069 1.30805,1.70945 1.30805,1.70945l-0.85088,2.18051c-2.05465,1.25022 -2.51228,3.04781 -4.1108,4.63889c-1.51363,1.50658 -4.33558,2.44263 -6.29609,3.17447c0,0 -0.67895,0.25254 -1.27428,-0.05923c-1.35682,1.48155 -2.82066,2.87819 -4.31855,4.26442c-0.61954,0.57336 -1.32762,1.1624 -2.0019,1.7968c-0.13905,0.25601 -0.34777,0.42705 -0.55223,0.5406c-0.88442,0.90624 -1.64167,1.91294 -1.95781,3.09628c-0.60311,2.2575 0.63379,4.93467 1.60436,6.91022c0,0 0.66992,1.36668 -0.69677,2.0366c-1.36668,0.66992 -2.0366,-0.69675 -2.0366,-0.69675c-1.04827,-2.14305 -2.02955,-4.53605 -2.07872,-6.97202c-0.03286,-1.62867 0.50067,-3.04281 1.32039,-4.31114c-0.73515,-0.18288 -1.46901,-0.48474 -2.34467,-0.92583l0.39618,0.26371c0,0 -1.48836,0.31845 -1.80681,-1.1699z" fill="#822b00" stroke="#681800" stroke-width="1.5" stroke-linecap="butt"/></g><path d="M248.41197,70.66466c0,0 -0.79708,2.16123 -1.63302,2.83794c-0.79787,0.6459 -3.27372,1.13419 -3.27372,1.13419" fill="none" stroke="#000000" stroke-width="1.5" stroke-linecap="round"/><g stroke-width="1.5" stroke-linecap="round"><path d="M236.12836,84.53529c0,0 -4.16132,-0.60555 -7.81296,1.73783c-1.9738,1.26665 -2.02542,1.01275 -3.85831,2.34191c-2.13764,1.55016 -5.64551,2.12662 -7.38537,1.91797c-4.5707,-0.54811 -9.31237,-6.25926 -9.73206,-8.03104c-0.41614,-1.75679 3.194,-7.06623 6.72572,-9.52946c0.85082,-0.59341 7.04058,-2.28827 8.83798,-2.06254c2.17119,0.27267 2.53113,2.43158 5.51959,2.95436c4.80696,0.84089 5.55245,-2.44733 5.55245,-2.44733" fill="#a25711" stroke="#a33700"/><path d="M231.08895,82.04498c0,0 -3.32656,-0.48409 -6.2457,1.38923c-1.57788,1.01257 -1.61912,0.8096 -3.08434,1.87214c-1.70883,1.23921 -4.51306,1.70002 -5.9039,1.53324c-3.65383,-0.43817 -7.44434,-5.00369 -7.77985,-6.42004c-0.33266,-1.40439 2.55329,-5.64877 5.37656,-7.6179c0.68015,-0.47438 5.62828,-1.82925 7.06513,-1.6488c1.73567,0.21797 2.02339,1.94382 4.41239,2.36172c3.8427,0.67221 6.58953,1.06828 6.58953,1.06828" fill="#a3805e" stroke="#9b5a57"/></g><g stroke="none" stroke-width="0" stroke-linecap="butt"><path d="M253.92465,85.56013c0,2.77444 -2.37408,5.02357 -5.30265,5.02357c-2.92857,0 -5.30266,-2.24913 -5.30266,-5.02357c0,-2.77444 2.37408,-5.02357 5.30266,-5.02357c2.92857,0 5.30265,2.24913 5.30265,5.02357z" fill="url(#color-2)"/><path d="M245.01335,85.73537c0,-1.93565 1.56916,-3.50481 3.50482,-3.50481c1.93565,0 3.50482,1.56916 3.50482,3.50481c0,1.93565 -1.56916,3.50482 -3.50482,3.50482c-1.93565,0 -3.50482,-1.56916 -3.50482,-3.50482z" fill="#000000"/><path d="M249.86167,88.27636c0,-0.53231 0.43152,-0.96382 0.96382,-0.96382c0.53231,0 0.96383,0.43151 0.96383,0.96382c0,0.53231 -0.43152,0.96382 -0.96383,0.96382c-0.53231,0 -0.96382,-0.43152 -0.96382,-0.96382z" fill="#ffffff"/><path d="M244.83812,83.34042c0,-0.93556 0.75843,-1.694 1.69399,-1.694c0.93556,0 1.694,0.75843 1.694,1.694c0,0.93556 -0.75843,1.694 -1.694,1.694c-0.93556,0 -1.69399,-0.75843 -1.69399,-1.694z" fill="#ffffff"/></g><path d="M257.36347,98.76395c-0.57867,2.38147 -6.7035,2.93774 -13.68019,1.24247c-6.97669,-1.69527 -12.1633,-5.00012 -11.58463,-7.38158c0.57868,-2.38147 6.7035,-2.93774 13.68019,-1.24247c6.97669,1.69527 12.1633,5.00011 11.58463,7.38158z" fill="url(#color-3)" stroke="none" stroke-width="1.5" stroke-linecap="butt"/><path d="M265.30774,91.91401c0,-3.54382 2.87284,-6.41666 6.41667,-6.41666c3.54383,0 6.41666,2.87284 6.41666,6.41666c0,3.54382 -2.87284,6.41667 -6.41666,6.41667c-3.54383,0 -6.41667,-2.87285 -6.41667,-6.41667z" fill="url(#color-4)" stroke="none" stroke-width="0" stroke-linecap="butt"/><path d="M188.56149,210.18735c0,0 -2.24761,-2.59662 -1.31341,-4.04398c0.93418,-1.44736 5.50804,-2.45481 5.50804,-2.45481c0,0 41.39368,9.06474 58.13026,9.06474c16.03778,0 33.50625,-8.54483 33.50625,-8.54483c0,0 4.0329,1.88387 5.05136,3.93513c1.01846,2.05126 -1.17939,3.86342 -1.17939,3.86342c0,0 -16.93948,2.39719 -23.41227,4.58175c-4.11541,1.38895 -7.89472,6.84506 -10.03737,8.3509c-2.41243,1.69544 -8.76192,2.03136 -8.76192,2.03136c0,0 -4.36496,-1.01539 -8.52745,-3.67837c-5.013,-3.20711 -15.27432,-10.53671 -17.05031,-11.10175c-8.25889,-2.62758 -31.91378,-2.00355 -31.91378,-2.00355z" fill="#184000" stroke="#0b1d00" stroke-width="1.5" stroke-linecap="butt"/><path d="M288.9888,176.79368c-11.36781,3.00496 -14.65108,2.14012 -14.65108,2.14012c0,0 4.68922,-6.4511 9.72075,-14.66505c3.98614,-6.50737 3.41441,-15.28444 3.41441,-15.28444c0,0 8.29521,2.04779 11.2369,6.74905c3.60086,5.75472 1.64303,10.71081 1.64303,10.71081c0,0 1.17176,7.03582 -11.364,10.34952z" data-paper-data="{&quot;index&quot;:null}" fill="#184000" stroke="#0b1d00" stroke-width="1.5" stroke-linecap="butt"/><path d="M228.76862,118.66457l17.00445,31.01522" fill="none" stroke="#0b1d00" stroke-width="1.5" stroke-linecap="round"/><path d="M231.84385,179.10951c0,0 1.86389,-11.80526 4.13396,-17.17867c2.11291,-5.00141 9.04881,-14.02595 9.04881,-14.02595c0,0 8.53263,7.04764 11.40881,12.07865c2.97921,5.21123 6.16821,18.6671 6.16821,18.6671c0,0 -10.49763,3.8332 -15.73943,3.9114c-5.00003,0.0746 -15.02035,-3.45251 -15.02035,-3.45251z" fill="#184000" stroke="#0b1d00" stroke-width="1.5" stroke-linecap="butt"/><path d="M288.11866,148.79313l-26.83165,-31.57132" fill="none" stroke="#0b1d00" stroke-width="1.5" stroke-linecap="round"/><path d="M261.59463,179.57631l12.64105,-0.4526" fill="none" stroke="#0b1d00" stroke-width="1.5" stroke-linecap="round"/></g></g></svg>